<?xml version="1.0" encoding="utf-8"?>
<!-- Generator: Adobe Illustrator 19.2.1, SVG Export Plug-In . SVG Version: 6.00 Build 0)  -->
<svg version="1.1" id="Слой_1" xmlns="http://www.w3.org/2000/svg" xmlns:xlink="http://www.w3.org/1999/xlink" x="0px" y="0px"
	 viewBox="0 0 346.3 180" enable-background="new 0 0 346.3 180" xml:space="preserve">
<rect fill="none" width="346.3" height="180"/>
<g>
	<path fill="#010202" d="M25.9,16.1v-0.6h0.6c0-0.2,0-0.4,0-0.7h-0.6v-0.7h0.7c0.2-0.8,0.6-1.4,1.3-1.9c0.6-0.5,1.3-0.7,2.1-0.7
		c0.3,0,0.7,0.1,1,0.1l-0.2,0.9c-0.2-0.1-0.5-0.1-0.8-0.1c-0.6,0-1.1,0.1-1.5,0.5c-0.4,0.3-0.7,0.7-0.9,1.2h2.8l-0.1,0.7h-2.8
		c0,0.2,0,0.4,0,0.7h2.7l-0.1,0.6h-2.4c0.1,0.5,0.4,1,0.9,1.3c0.4,0.3,0.9,0.5,1.5,0.5c0.3,0,0.6,0,0.9-0.1l0.2,0.9
		c-0.3,0.1-0.7,0.2-1.1,0.2c-0.8,0-1.6-0.3-2.2-0.8c-0.6-0.5-1-1.1-1.2-2H25.9z"/>
	<path fill="#010202" d="M304.7,140v-0.6h0.6c0-0.2-0.1-0.4,0-0.7h-0.5V138h0.7c0.2-0.8,0.6-1.4,1.2-1.9c0.6-0.5,1.3-0.7,2.2-0.7
		c0.3,0,0.7,0,1,0.1l-0.2,0.9c-0.2-0.1-0.5-0.1-0.8-0.1c-0.5,0-1,0.2-1.5,0.5c-0.4,0.3-0.7,0.7-0.9,1.2h2.8l-0.1,0.6h-2.8
		c0,0.2,0,0.5,0,0.7h2.7l-0.1,0.6h-2.4c0.2,0.5,0.5,1,0.9,1.3c0.4,0.3,0.9,0.5,1.5,0.5c0.3,0,0.6,0,0.9-0.1l0.2,0.9
		c-0.3,0.1-0.7,0.2-1.1,0.2c-0.9,0-1.6-0.2-2.2-0.7c-0.6-0.5-1-1.1-1.2-2H304.7z M313.2,143l-2.5-7.9h0.9l2.6,7.9H313.2z
		 M315.4,142.6v-7.1h4.1v0.9h-3.1v2.2h2.5v0.9h-2.5v2.3h3.3v0.9H315.4z M322.8,142.6v-6.3h-2.5v-0.9h5.9v0.9h-2.4v6.3H322.8z
		 M327.3,142.6v-7.1h1v3.1h3.7v-3.1h1v7.1h-1v-3.1h-3.7v3.1H327.3z"/>
	<path fill="#989999" d="M40.1,167.9l-0.2-0.2l-0.8-3.4l0.3-0.3l2.1,1.7l0.4-0.5l0.3,0.2l-0.4,0.5l0.9,0.8l-0.3,0.3l-0.9-0.8
		L40.1,167.9z M40.1,167.3l1.1-1.2l-1.4-1.2l-0.3-0.3l0,0c0,0.1,0.1,0.3,0.1,0.4L40.1,167.3L40.1,167.3z M44.5,164.7
		c-0.3,0.4-0.7,0.6-1.2,0.5c-0.5-0.1-0.9-0.3-1.5-0.8c-0.3-0.2-0.5-0.4-0.6-0.6c-0.1-0.2-0.3-0.4-0.4-0.6c-0.1-0.2-0.1-0.5-0.1-0.7
		c0-0.2,0.1-0.4,0.3-0.6c0.2-0.3,0.5-0.4,0.8-0.5c0.3,0,0.6,0,0.9,0.1c0.3,0.1,0.6,0.3,1,0.6c0.3,0.2,0.5,0.4,0.6,0.6
		c0.1,0.2,0.3,0.4,0.4,0.6c0.1,0.2,0.1,0.4,0.1,0.7C44.8,164.2,44.6,164.5,44.5,164.7L44.5,164.7z M44.2,164.4
		c0.2-0.2,0.3-0.4,0.2-0.7c0-0.2-0.1-0.4-0.3-0.7c-0.1-0.2-0.4-0.4-0.7-0.7c-0.2-0.2-0.4-0.3-0.6-0.4c-0.2-0.1-0.3-0.2-0.5-0.2
		c-0.2-0.1-0.4-0.1-0.5,0c-0.2,0.1-0.3,0.2-0.4,0.3c-0.5,0.5-0.2,1.2,0.7,2c0.4,0.4,0.8,0.6,1.2,0.7
		C43.6,164.8,43.9,164.7,44.2,164.4L44.2,164.4z M46.9,161.8c-0.3,0.4-0.7,0.5-1.2,0.5c-0.5-0.1-0.9-0.3-1.5-0.8
		c-0.3-0.2-0.5-0.4-0.6-0.6c-0.2-0.2-0.3-0.4-0.4-0.7c-0.1-0.2-0.1-0.4-0.1-0.7c0-0.2,0.1-0.4,0.3-0.6c0.2-0.3,0.5-0.4,0.8-0.5
		c0.3-0.1,0.6,0,0.9,0.1c0.3,0.1,0.6,0.3,1,0.6c0.2,0.2,0.5,0.4,0.6,0.6c0.1,0.2,0.3,0.4,0.4,0.6c0.1,0.2,0.1,0.4,0.1,0.7
		C47.2,161.4,47.1,161.6,46.9,161.8L46.9,161.8z M46.6,161.5c0.2-0.2,0.3-0.4,0.2-0.7c0-0.2-0.1-0.5-0.3-0.7
		c-0.1-0.2-0.4-0.4-0.7-0.7c-0.2-0.2-0.4-0.3-0.6-0.4c-0.2-0.1-0.3-0.2-0.5-0.3c-0.2,0-0.3,0-0.5,0c-0.2,0.1-0.3,0.1-0.4,0.3
		c-0.5,0.5-0.2,1.2,0.7,2c0.4,0.3,0.8,0.6,1.2,0.7C46,161.9,46.4,161.8,46.6,161.5L46.6,161.5z M49.3,158.9
		c-0.3,0.4-0.7,0.5-1.2,0.5c-0.5-0.1-0.9-0.3-1.5-0.8c-0.3-0.2-0.5-0.4-0.6-0.6c-0.2-0.2-0.3-0.4-0.4-0.6c-0.1-0.2-0.1-0.4-0.1-0.7
		c0.1-0.2,0.2-0.4,0.3-0.7c0.2-0.3,0.5-0.4,0.8-0.5c0.3-0.1,0.6,0,0.9,0.1c0.3,0.1,0.6,0.3,1,0.6c0.2,0.2,0.5,0.4,0.6,0.6
		c0.2,0.2,0.3,0.4,0.4,0.7c0.1,0.2,0.1,0.4,0.1,0.7C49.6,158.5,49.5,158.7,49.3,158.9L49.3,158.9z M49,158.6
		c0.2-0.2,0.3-0.4,0.2-0.7c0-0.2-0.1-0.5-0.3-0.7c-0.2-0.2-0.4-0.4-0.7-0.7c-0.2-0.2-0.4-0.3-0.6-0.4c-0.2-0.1-0.3-0.2-0.5-0.3
		c-0.2-0.1-0.3-0.1-0.5,0c-0.2,0.1-0.3,0.1-0.5,0.3c-0.4,0.5-0.2,1.2,0.7,1.9c0.4,0.4,0.8,0.6,1.2,0.7C48.5,159,48.8,158.9,49,158.6
		L49,158.6z M49.6,156l-0.3-0.2l1.1-1.3l0.3,0.3L49.6,156z M51.4,154.4l-0.2-0.2l-0.8-3.4l0.3-0.4l2.1,1.8l0.4-0.5l0.3,0.2l-0.4,0.5
		l0.9,0.8l-0.3,0.3l-0.9-0.8L51.4,154.4z M51.5,153.8l1.1-1.3l-1.4-1.1l-0.3-0.3l0,0c0,0.1,0.1,0.3,0.1,0.4L51.5,153.8L51.5,153.8z
		 M53.8,151.6l-0.2-0.2l-0.8-3.5l0.3-0.3l2.1,1.8l0.4-0.5l0.3,0.2l-0.4,0.5l0.9,0.8l-0.3,0.3l-0.9-0.8L53.8,151.6z M53.8,151
		l1.1-1.3l-1.4-1.2l-0.3-0.3l0,0c0.1,0.1,0.1,0.3,0.1,0.4L53.8,151L53.8,151z M58.2,148.3c-0.3,0.4-0.7,0.6-1.2,0.5
		c-0.5-0.1-0.9-0.3-1.5-0.8c-0.3-0.2-0.5-0.4-0.6-0.6c-0.2-0.2-0.3-0.4-0.4-0.6c-0.1-0.2-0.1-0.4-0.1-0.7c0.1-0.2,0.1-0.5,0.3-0.7
		c0.3-0.3,0.5-0.4,0.8-0.5c0.3-0.1,0.6,0,0.9,0.1c0.3,0.1,0.6,0.4,0.9,0.6c0.3,0.2,0.5,0.4,0.6,0.6c0.2,0.2,0.3,0.4,0.4,0.6
		c0.1,0.2,0.1,0.5,0.1,0.7C58.5,147.9,58.3,148.1,58.2,148.3L58.2,148.3z M57.9,148.1c0.2-0.2,0.2-0.4,0.2-0.6
		c0-0.2-0.1-0.5-0.3-0.7c-0.2-0.2-0.4-0.4-0.7-0.7c-0.2-0.2-0.4-0.3-0.6-0.4c-0.2-0.1-0.4-0.2-0.5-0.2c-0.2-0.1-0.3-0.1-0.5,0
		c-0.1,0-0.3,0.1-0.4,0.3c-0.4,0.5-0.2,1.2,0.7,2c0.4,0.4,0.8,0.6,1.2,0.7C57.3,148.5,57.6,148.4,57.9,148.1L57.9,148.1z
		 M60.6,145.4c-0.3,0.4-0.7,0.6-1.2,0.5c-0.5-0.1-0.9-0.3-1.5-0.8c-0.3-0.2-0.5-0.4-0.6-0.6c-0.2-0.2-0.3-0.4-0.4-0.6
		c-0.1-0.2-0.1-0.5-0.1-0.7c0.1-0.2,0.1-0.5,0.3-0.7c0.2-0.3,0.5-0.4,0.8-0.5c0.3,0,0.6,0,0.9,0.1c0.3,0.1,0.6,0.3,0.9,0.6
		c0.3,0.2,0.5,0.4,0.6,0.6c0.2,0.2,0.3,0.4,0.4,0.6c0.1,0.2,0.1,0.5,0.1,0.7C60.9,145,60.8,145.2,60.6,145.4L60.6,145.4z
		 M60.3,145.2c0.2-0.2,0.2-0.4,0.2-0.6c0-0.3-0.1-0.5-0.3-0.7c-0.2-0.2-0.4-0.4-0.7-0.7c-0.2-0.2-0.4-0.3-0.6-0.4
		c-0.2-0.1-0.4-0.2-0.5-0.2c-0.2-0.1-0.3-0.1-0.5,0c-0.1,0-0.3,0.1-0.4,0.3c-0.4,0.5-0.2,1.2,0.7,2c0.4,0.4,0.8,0.6,1.2,0.7
		C59.7,145.6,60,145.5,60.3,145.2L60.3,145.2z"/>
	<path fill="#989999" d="M77.9,167.1l-0.2-0.2l-0.8-3.4l0.3-0.4l2.1,1.8l0.4-0.5l0.3,0.2l-0.4,0.5l0.9,0.8l-0.3,0.3l-0.9-0.7
		L77.9,167.1z M78,166.4l1.1-1.3l-1.4-1.1l-0.3-0.3l0,0c0.1,0.1,0.1,0.3,0.1,0.4L78,166.4L78,166.4z M84.7,161
		c-0.3,0.4-0.7,0.6-1.2,0.5c-0.5-0.1-0.9-0.3-1.5-0.8c-0.3-0.2-0.5-0.4-0.6-0.6c-0.1-0.2-0.3-0.4-0.4-0.6c-0.1-0.2-0.1-0.5-0.1-0.7
		c0-0.2,0.1-0.5,0.3-0.7c0.2-0.3,0.5-0.4,0.8-0.5c0.3,0,0.6,0,0.9,0.1c0.3,0.1,0.6,0.3,0.9,0.6c0.3,0.2,0.5,0.4,0.6,0.6
		c0.1,0.2,0.3,0.4,0.4,0.6c0.1,0.2,0.1,0.5,0.1,0.7C85,160.6,84.8,160.8,84.7,161L84.7,161z M84.4,160.7c0.2-0.2,0.3-0.4,0.2-0.6
		c0-0.2-0.1-0.5-0.3-0.7c-0.1-0.2-0.4-0.5-0.7-0.7c-0.2-0.2-0.4-0.3-0.6-0.4c-0.2-0.1-0.4-0.2-0.5-0.2c-0.2-0.1-0.4-0.1-0.5,0
		c-0.2,0-0.3,0.1-0.4,0.3c-0.5,0.5-0.2,1.2,0.7,2c0.4,0.4,0.8,0.6,1.2,0.7C83.9,161.1,84.1,161,84.4,160.7L84.4,160.7z M86.1,159.2
		l-0.3-0.3l0.6-0.7l-2.4-2l-0.2-0.1l0,0c0,0.1,0.1,0.2,0.1,0.3l0.1,0.7l-0.4,0l-0.1-1.4l0.2-0.3l3,2.5l0.6-0.7l0.3,0.3L86.1,159.2z
		 M86.7,156l-0.3-0.2l1.1-1.3l0.3,0.3L86.7,156z M95.3,148.3c-0.3,0.4-0.7,0.6-1.2,0.5c-0.5-0.1-0.9-0.3-1.5-0.8
		c-0.3-0.2-0.5-0.4-0.6-0.6c-0.2-0.2-0.3-0.4-0.4-0.6c-0.1-0.2-0.1-0.4-0.1-0.7c0.1-0.2,0.1-0.5,0.3-0.7c0.2-0.3,0.5-0.4,0.8-0.5
		c0.3-0.1,0.6,0,0.9,0.1c0.3,0.1,0.6,0.4,1,0.6c0.2,0.2,0.5,0.4,0.6,0.6c0.2,0.2,0.3,0.4,0.4,0.6c0.1,0.2,0.1,0.5,0.1,0.7
		C95.6,147.9,95.5,148.1,95.3,148.3L95.3,148.3z M95,148.1c0.2-0.2,0.2-0.4,0.2-0.6c0-0.2-0.1-0.5-0.3-0.7c-0.2-0.2-0.4-0.4-0.7-0.7
		c-0.2-0.2-0.4-0.3-0.6-0.4c-0.2-0.1-0.3-0.2-0.5-0.2c-0.2-0.1-0.3-0.1-0.5,0c-0.1,0-0.3,0.1-0.4,0.3c-0.4,0.5-0.2,1.2,0.7,2
		c0.4,0.4,0.8,0.6,1.2,0.7C94.4,148.5,94.8,148.4,95,148.1L95,148.1z M97.7,145.4c-0.3,0.4-0.7,0.6-1.2,0.5
		c-0.5-0.1-0.9-0.3-1.5-0.8c-0.3-0.2-0.5-0.4-0.6-0.6c-0.2-0.2-0.3-0.4-0.4-0.6c-0.1-0.2-0.1-0.5-0.1-0.7c0.1-0.2,0.1-0.5,0.3-0.7
		c0.3-0.3,0.5-0.4,0.8-0.5c0.3,0,0.6,0,0.9,0.1c0.3,0.1,0.6,0.3,0.9,0.6c0.3,0.2,0.5,0.4,0.6,0.6c0.2,0.2,0.3,0.4,0.4,0.6
		c0.1,0.2,0.1,0.5,0.1,0.7C98,145,97.9,145.2,97.7,145.4L97.7,145.4z M97.4,145.2c0.2-0.2,0.2-0.4,0.2-0.6c0-0.3-0.1-0.5-0.3-0.7
		c-0.2-0.2-0.4-0.4-0.7-0.7c-0.2-0.2-0.4-0.3-0.6-0.4c-0.2-0.1-0.4-0.2-0.5-0.2c-0.2-0.1-0.3-0.1-0.5,0c-0.1,0-0.3,0.1-0.4,0.3
		c-0.4,0.5-0.2,1.2,0.7,2c0.4,0.4,0.8,0.6,1.2,0.7C96.9,145.6,97.2,145.5,97.4,145.2L97.4,145.2z M80.3,164.3l-0.2-0.2l-0.8-3.4
		l0.3-0.3l2.1,1.7l0.4-0.5l0.3,0.2l-0.4,0.5l0.9,0.8l-0.3,0.3l-0.9-0.8L80.3,164.3z M80.3,163.6l1.1-1.3l-1.4-1.2l-0.3-0.3v0
		c0,0.1,0.1,0.3,0.1,0.4L80.3,163.6L80.3,163.6z M88.6,154.4l-0.2-0.2l-0.8-3.4l0.3-0.4l2.1,1.8l0.4-0.5l0.3,0.2l-0.4,0.5l0.9,0.8
		l-0.3,0.3l-0.9-0.8L88.6,154.4z M88.6,153.8l1.1-1.3l-1.4-1.1l-0.3-0.3h0c0.1,0.1,0.1,0.3,0.1,0.4L88.6,153.8L88.6,153.8z
		 M91,151.5c-0.1-0.1-0.2-0.2-0.3-0.4c-0.1-0.1-0.1-0.3-0.1-0.4c0-0.1,0-0.3,0-0.3c0-0.1,0-0.1,0-0.2c-0.4,0.1-0.7,0.1-1-0.1
		c-0.3-0.2-0.4-0.5-0.4-0.8c0-0.3,0.1-0.6,0.4-0.9c0.3-0.3,0.5-0.5,0.9-0.5c0.3-0.1,0.6,0,0.9,0.2c0.1,0.1,0.2,0.3,0.3,0.4
		c0.1,0.2,0.1,0.3,0.2,0.5c0,0.1,0,0.2,0.1,0.3c0.4-0.1,0.8-0.1,1.1,0.1c0.3,0.2,0.4,0.5,0.4,0.9c0,0.4-0.1,0.7-0.4,1
		c-0.3,0.3-0.6,0.5-0.9,0.5C91.6,151.8,91.3,151.7,91,151.5L91,151.5z M91.4,149.3c0-0.5-0.2-0.8-0.4-1c-0.2-0.1-0.4-0.2-0.6-0.2
		c-0.2,0.1-0.4,0.2-0.6,0.4c-0.2,0.2-0.3,0.4-0.3,0.6c0,0.2,0.1,0.4,0.2,0.5c0.1,0.1,0.1,0.1,0.2,0.1c0.1,0,0.2,0,0.3,0
		c0.1,0,0.1,0,0.3-0.1c0.1,0,0.2-0.1,0.3-0.1c0.1,0,0.2-0.1,0.3-0.1C91.3,149.4,91.4,149.4,91.4,149.3L91.4,149.3z M91.2,151.1
		c0.2,0.2,0.5,0.3,0.7,0.2c0.3,0,0.5-0.2,0.7-0.4c0.2-0.2,0.3-0.4,0.3-0.7c0-0.3-0.1-0.5-0.3-0.6c-0.1-0.1-0.2-0.1-0.3-0.1
		c-0.1,0-0.2,0-0.3,0c-0.1,0-0.2,0.1-0.3,0.1c-0.1,0-0.2,0.1-0.4,0.2c-0.2,0.1-0.3,0.1-0.4,0.2C90.8,150.5,91,150.9,91.2,151.1
		L91.2,151.1z"/>
	<path fill="#989999" d="M115.5,166.7l-0.2-0.2l-0.8-3.4l0.3-0.4l2.1,1.8l0.4-0.5l0.3,0.2l-0.4,0.5l0.9,0.8l-0.3,0.3l-0.9-0.7
		L115.5,166.7z M115.6,166l1.1-1.3l-1.4-1.1l-0.3-0.3l0,0c0,0.1,0.1,0.3,0.1,0.4L115.6,166L115.6,166z M117.9,163.8
		c-0.1-0.1-0.2-0.2-0.3-0.4c-0.1-0.1-0.1-0.3-0.1-0.4c0-0.1,0-0.3,0-0.3c0-0.1,0-0.1,0-0.2c-0.4,0.1-0.7,0.1-1-0.1
		c-0.3-0.2-0.4-0.5-0.4-0.8c0-0.3,0.1-0.6,0.4-0.9c0.3-0.3,0.5-0.5,0.9-0.5c0.3,0,0.6,0,0.9,0.3c0.1,0.1,0.2,0.3,0.3,0.4
		c0.1,0.2,0.1,0.3,0.1,0.5c0,0.1,0.1,0.2,0.1,0.3c0.4-0.1,0.8-0.1,1.1,0.1c0.3,0.2,0.4,0.5,0.4,0.9c0,0.4-0.1,0.7-0.4,1
		c-0.3,0.3-0.5,0.5-0.9,0.5C118.6,164.1,118.2,164,117.9,163.8L117.9,163.8z M118.4,161.6c0-0.5-0.2-0.8-0.4-1
		c-0.2-0.1-0.4-0.2-0.6-0.2c-0.2,0.1-0.4,0.2-0.6,0.4c-0.2,0.2-0.3,0.4-0.3,0.6c0,0.2,0.1,0.4,0.2,0.5c0.1,0.1,0.1,0.1,0.2,0.1
		c0.1,0,0.2,0,0.3,0c0.1,0,0.2,0,0.3-0.1c0.1-0.1,0.2-0.1,0.3-0.1c0.1,0,0.2-0.1,0.3-0.1C118.2,161.7,118.3,161.6,118.4,161.6
		L118.4,161.6z M118.2,163.4c0.2,0.2,0.5,0.3,0.7,0.2c0.3-0.1,0.5-0.2,0.7-0.4c0.2-0.2,0.3-0.4,0.3-0.7c0-0.3-0.1-0.5-0.3-0.6
		c-0.1-0.1-0.2-0.1-0.3-0.1c-0.1,0-0.2,0-0.3,0c-0.1,0.1-0.2,0.1-0.3,0.1c-0.1,0-0.2,0.1-0.4,0.2c-0.1,0.1-0.3,0.1-0.4,0.2
		C117.8,162.8,117.9,163.1,118.2,163.4L118.2,163.4z M126.7,154.4l-0.1-0.4c0.4,0.1,0.7-0.1,1-0.4c0.2-0.2,0.3-0.5,0.3-0.8
		c0-0.3-0.1-0.5-0.3-0.7c-0.2-0.2-0.5-0.3-0.7-0.2c-0.3,0.1-0.5,0.2-0.7,0.4c-0.2,0.2-0.3,0.5-0.3,0.7l-0.3,0.1l-1.4-1.5l1.3-1.6
		l0.3,0.3l-1.1,1.3l0.8,0.8l0.2,0.2l0,0c0-0.2,0.1-0.4,0.3-0.6c0.3-0.3,0.6-0.5,1-0.5c0.4-0.1,0.7,0.1,1,0.3c0.3,0.3,0.5,0.6,0.5,1
		c0,0.4-0.1,0.7-0.4,1.1c-0.1,0.2-0.3,0.3-0.6,0.5C127.2,154.4,126.9,154.4,126.7,154.4L126.7,154.4z M128.9,151.8l-0.1-0.4
		c0.2,0,0.4-0.1,0.6-0.1c0.2-0.1,0.4-0.2,0.5-0.4c0.2-0.2,0.3-0.4,0.3-0.7c0-0.3-0.1-0.5-0.3-0.7c-0.2-0.2-0.5-0.3-0.7-0.2
		c-0.3,0.1-0.5,0.2-0.7,0.4l-0.2,0.2l-0.3-0.1l-0.3-1.7l0-0.3l0,0c-0.1,0.1-0.1,0.1-0.2,0.3l-1,1.3l-0.3-0.3l1.6-1.9l0.2,0.2
		l0.3,1.9c0.1-0.1,0.2-0.2,0.3-0.3c0.1-0.1,0.3-0.1,0.4-0.2c0.2-0.1,0.3-0.1,0.5,0c0.2,0,0.4,0.1,0.5,0.3c0.3,0.3,0.4,0.5,0.5,0.9
		c0,0.4-0.1,0.7-0.3,1c-0.1,0.2-0.3,0.3-0.6,0.5C129.4,151.7,129.1,151.8,128.9,151.8L128.9,151.8z M122.3,160.6
		c-0.3,0.4-0.7,0.6-1.2,0.5c-0.5-0.1-0.9-0.3-1.5-0.8c-0.3-0.2-0.5-0.4-0.6-0.6c-0.2-0.2-0.3-0.4-0.4-0.6c-0.1-0.2-0.1-0.5-0.1-0.7
		c0.1-0.2,0.2-0.5,0.3-0.7c0.2-0.3,0.5-0.4,0.8-0.5c0.3,0,0.6,0,0.9,0.1c0.3,0.1,0.6,0.3,1,0.6c0.2,0.2,0.5,0.4,0.6,0.6
		c0.2,0.2,0.3,0.4,0.4,0.6c0.1,0.2,0.1,0.5,0.1,0.7C122.5,160.2,122.4,160.4,122.3,160.6L122.3,160.6z M121.9,160.4
		c0.2-0.2,0.3-0.4,0.2-0.6c0-0.2-0.1-0.5-0.3-0.7c-0.2-0.2-0.4-0.5-0.7-0.7c-0.2-0.2-0.4-0.3-0.6-0.4c-0.2-0.1-0.3-0.2-0.5-0.2
		c-0.2-0.1-0.3-0.1-0.5,0c-0.2,0-0.3,0.1-0.5,0.3c-0.4,0.5-0.2,1.2,0.7,2c0.4,0.4,0.8,0.6,1.2,0.7
		C121.4,160.8,121.7,160.6,121.9,160.4L121.9,160.4z M123.6,158.9l-0.3-0.3l0.6-0.7l-2.4-2l-0.2-0.1l0,0c0,0.1,0,0.2,0.1,0.3
		l0.1,0.7l-0.4,0l-0.1-1.4l0.3-0.3l3,2.5l0.6-0.7l0.3,0.2L123.6,158.9z M124.3,155.6l-0.3-0.2l1.1-1.3l0.3,0.3L124.3,155.6z
		 M132.6,148.3c-0.3,0.4-0.7,0.6-1.2,0.5c-0.5-0.1-0.9-0.3-1.5-0.8c-0.3-0.2-0.5-0.4-0.6-0.6c-0.2-0.2-0.3-0.4-0.4-0.6
		c-0.1-0.2-0.1-0.4-0.1-0.7c0.1-0.2,0.1-0.5,0.3-0.7c0.2-0.3,0.5-0.4,0.8-0.5c0.3-0.1,0.6,0,0.9,0.1c0.3,0.1,0.6,0.4,0.9,0.6
		c0.3,0.2,0.5,0.4,0.6,0.6c0.2,0.2,0.3,0.4,0.4,0.6c0.1,0.2,0.1,0.5,0.1,0.7C132.9,147.9,132.7,148.1,132.6,148.3L132.6,148.3z
		 M132.3,148.1c0.2-0.2,0.2-0.4,0.2-0.6c0-0.2-0.1-0.5-0.3-0.7c-0.2-0.2-0.4-0.4-0.7-0.7c-0.2-0.2-0.4-0.3-0.6-0.4
		c-0.2-0.1-0.4-0.2-0.5-0.2c-0.2-0.1-0.3-0.1-0.5,0c-0.1,0-0.3,0.1-0.4,0.3c-0.4,0.5-0.2,1.2,0.7,2c0.4,0.4,0.8,0.6,1.2,0.7
		C131.7,148.5,132,148.4,132.3,148.1L132.3,148.1z M135,145.4c-0.3,0.4-0.7,0.6-1.2,0.5c-0.5-0.1-0.9-0.3-1.5-0.8
		c-0.3-0.2-0.5-0.4-0.6-0.6c-0.2-0.2-0.3-0.4-0.4-0.6c-0.1-0.2-0.1-0.5-0.1-0.7c0.1-0.2,0.1-0.5,0.3-0.7c0.2-0.3,0.5-0.4,0.8-0.5
		c0.3,0,0.6,0,0.9,0.1c0.3,0.1,0.6,0.3,0.9,0.6c0.3,0.2,0.5,0.4,0.6,0.6c0.2,0.2,0.3,0.4,0.4,0.6c0.1,0.2,0.1,0.5,0.1,0.7
		C135.3,145,135.2,145.2,135,145.4L135,145.4z M134.7,145.2c0.2-0.2,0.2-0.4,0.2-0.6c0-0.3-0.1-0.5-0.3-0.7
		c-0.2-0.2-0.4-0.4-0.7-0.7c-0.2-0.2-0.4-0.3-0.6-0.4c-0.2-0.1-0.4-0.2-0.5-0.2c-0.2-0.1-0.3-0.1-0.5,0c-0.1,0-0.3,0.1-0.4,0.3
		c-0.4,0.5-0.2,1.2,0.7,2c0.5,0.4,0.9,0.6,1.2,0.7C134.1,145.6,134.4,145.5,134.7,145.2L134.7,145.2z"/>
	<path fill="#989999" d="M154.4,166.8l-0.1-0.4c0.4,0.1,0.7-0.1,1-0.4c0.2-0.3,0.3-0.5,0.3-0.8c0-0.3-0.1-0.5-0.4-0.7
		c-0.2-0.2-0.5-0.3-0.7-0.2c-0.3,0-0.5,0.2-0.7,0.4c-0.2,0.2-0.3,0.5-0.3,0.7l-0.2,0.1l-1.5-1.5l1.3-1.6l0.3,0.3l-1.1,1.3l0.7,0.8
		l0.2,0.2l0,0c0-0.2,0.1-0.4,0.3-0.6c0.3-0.3,0.6-0.5,1-0.6c0.4,0,0.7,0.1,1,0.3c0.3,0.3,0.5,0.6,0.5,1c0,0.4-0.1,0.7-0.4,1.1
		c-0.2,0.2-0.4,0.3-0.6,0.5C154.8,166.8,154.6,166.8,154.4,166.8L154.4,166.8z M156.5,164.3l-0.1-0.4c0.2,0,0.4-0.1,0.6-0.1
		c0.2-0.1,0.4-0.2,0.5-0.4c0.2-0.2,0.3-0.4,0.2-0.7c0-0.3-0.1-0.5-0.3-0.7c-0.2-0.2-0.5-0.3-0.7-0.2c-0.3,0.1-0.5,0.2-0.7,0.4
		l-0.2,0.2l-0.3-0.1l-0.3-1.6l-0.1-0.3v0c0,0.1-0.1,0.2-0.2,0.3l-1.1,1.3l-0.3-0.3l1.6-1.9l0.2,0.2l0.3,1.9c0.1-0.1,0.2-0.2,0.3-0.3
		c0.1-0.1,0.3-0.2,0.5-0.2c0.1-0.1,0.3-0.1,0.5,0c0.2,0.1,0.4,0.1,0.5,0.3c0.3,0.2,0.5,0.5,0.5,0.9c0,0.4-0.1,0.7-0.3,1
		c-0.2,0.2-0.4,0.3-0.6,0.5C157,164.2,156.8,164.2,156.5,164.3L156.5,164.3z M163.6,153.6c-0.2-0.2-0.4-0.4-0.6-0.6
		c-0.2-0.2-0.3-0.5-0.4-0.8c-0.1-0.3-0.1-0.5-0.1-0.8c0.1-0.3,0.2-0.5,0.4-0.8c0.2-0.2,0.4-0.4,0.7-0.5l0.2,0.4
		c-0.2,0.1-0.3,0.2-0.5,0.4c-0.3,0.3-0.3,0.7-0.2,1.1c0.1,0.4,0.3,0.8,0.6,1.1h0c-0.1-0.2-0.1-0.4,0-0.6c0.1-0.2,0.2-0.4,0.3-0.6
		c0.2-0.3,0.5-0.5,0.9-0.5c0.3,0,0.7,0.1,1,0.4c0.3,0.3,0.5,0.6,0.5,1c0,0.3-0.1,0.7-0.3,1c-0.3,0.3-0.7,0.5-1.1,0.5
		C164.5,154.2,164.1,154,163.6,153.6L163.6,153.6z M165.9,153.4c0.2-0.2,0.2-0.5,0.2-0.7c-0.1-0.3-0.2-0.5-0.4-0.7s-0.5-0.3-0.7-0.3
		c-0.3,0-0.5,0.1-0.7,0.4c-0.2,0.2-0.3,0.4-0.3,0.7c0,0.3,0.1,0.5,0.2,0.6c0.1,0.1,0.3,0.2,0.5,0.3c0.2,0.1,0.4,0.1,0.6,0
		C165.5,153.7,165.7,153.6,165.9,153.4L165.9,153.4z M167.4,152.1c-0.1-0.1-0.2-0.1-0.2-0.2c-0.1-0.1-0.3-0.3-0.3-0.5
		c-0.1-0.2-0.1-0.4-0.1-0.5c0-0.2,0-0.4,0-0.6c0-0.2,0-0.4,0.1-0.6c0-0.2,0-0.4,0-0.5c0-0.2,0-0.3-0.1-0.5c-0.1-0.1-0.1-0.3-0.3-0.4
		c-0.2-0.1-0.4-0.2-0.6-0.2c-0.2,0-0.4,0.1-0.6,0.3c-0.1,0.1-0.2,0.3-0.2,0.5c0,0.2,0,0.4,0.1,0.6l-0.4,0.1
		c-0.1-0.2-0.1-0.5-0.1-0.8c0-0.3,0.1-0.5,0.3-0.7c0.2-0.3,0.5-0.5,0.9-0.5c0.3,0,0.6,0.1,0.9,0.3c0.2,0.1,0.3,0.3,0.3,0.4
		c0.1,0.2,0.1,0.3,0.1,0.5c0,0.2,0,0.3,0,0.5c0,0.2,0,0.4-0.1,0.6c0,0.2,0,0.3,0,0.5c0,0.2,0,0.3,0.1,0.5c0.1,0.1,0.1,0.3,0.3,0.4
		l1.5-1.7l0.3,0.2L167.4,152.1z M160.2,160.8c-0.3,0.4-0.7,0.6-1.2,0.5c-0.5-0.1-0.9-0.3-1.5-0.8c-0.3-0.2-0.5-0.4-0.6-0.6
		c-0.1-0.2-0.3-0.4-0.4-0.6c-0.1-0.2-0.1-0.5-0.1-0.7c0-0.2,0.1-0.5,0.3-0.7c0.2-0.3,0.5-0.4,0.8-0.5c0.3,0,0.6,0,0.9,0.1
		c0.3,0.1,0.6,0.3,1,0.6c0.3,0.2,0.5,0.4,0.6,0.6c0.1,0.2,0.3,0.4,0.4,0.6c0.1,0.2,0.1,0.5,0.1,0.7
		C160.5,160.4,160.4,160.6,160.2,160.8L160.2,160.8z M159.9,160.5c0.2-0.2,0.3-0.4,0.2-0.6c0-0.2-0.1-0.5-0.3-0.7
		c-0.1-0.2-0.4-0.4-0.7-0.7c-0.2-0.2-0.4-0.3-0.6-0.4c-0.2-0.1-0.3-0.2-0.5-0.2c-0.2-0.1-0.3-0.1-0.5,0c-0.2,0-0.3,0.1-0.4,0.3
		c-0.5,0.5-0.2,1.2,0.7,2c0.4,0.4,0.8,0.6,1.2,0.7C159.4,160.9,159.7,160.8,159.9,160.5L159.9,160.5z M161.6,159l-0.3-0.2l0.6-0.7
		l-2.4-2l-0.2-0.2v0c0,0.1,0,0.2,0.1,0.3l0.1,0.7l-0.4,0l-0.1-1.4l0.3-0.3l3,2.5l0.6-0.7l0.3,0.3L161.6,159z M162.3,155.8l-0.3-0.2
		l1.1-1.3l0.3,0.3L162.3,155.8z M170.7,148.3c-0.3,0.4-0.7,0.6-1.2,0.5c-0.5-0.1-0.9-0.3-1.5-0.8c-0.3-0.2-0.5-0.4-0.6-0.6
		c-0.2-0.2-0.3-0.4-0.4-0.6c-0.1-0.2-0.1-0.4-0.1-0.7c0.1-0.2,0.1-0.5,0.3-0.7c0.3-0.3,0.5-0.4,0.8-0.5c0.3-0.1,0.6,0,0.9,0.1
		c0.3,0.1,0.6,0.4,0.9,0.6c0.3,0.2,0.5,0.4,0.6,0.6c0.2,0.2,0.3,0.4,0.4,0.6c0.1,0.2,0.1,0.5,0.1,0.7
		C170.9,147.9,170.8,148.1,170.7,148.3L170.7,148.3z M170.4,148.1c0.2-0.2,0.2-0.4,0.2-0.6c0-0.2-0.1-0.5-0.3-0.7
		c-0.2-0.2-0.4-0.4-0.7-0.7c-0.2-0.2-0.4-0.3-0.6-0.4c-0.2-0.1-0.4-0.2-0.5-0.2c-0.2-0.1-0.3-0.1-0.5,0c-0.1,0-0.3,0.1-0.4,0.3
		c-0.4,0.5-0.2,1.2,0.7,2c0.4,0.4,0.8,0.6,1.2,0.7C169.8,148.5,170.1,148.4,170.4,148.1L170.4,148.1z M173.1,145.4
		c-0.3,0.4-0.7,0.6-1.2,0.5c-0.5-0.1-0.9-0.3-1.5-0.8c-0.3-0.2-0.5-0.4-0.6-0.6c-0.2-0.2-0.3-0.4-0.4-0.6c-0.1-0.2-0.1-0.5-0.1-0.7
		c0.1-0.2,0.1-0.5,0.3-0.7c0.2-0.3,0.5-0.4,0.8-0.5c0.3,0,0.6,0,0.9,0.1c0.3,0.1,0.6,0.3,0.9,0.6c0.3,0.2,0.5,0.4,0.6,0.6
		c0.2,0.2,0.3,0.4,0.4,0.6c0.1,0.2,0.1,0.5,0.1,0.7C173.4,145,173.3,145.2,173.1,145.4L173.1,145.4z M172.8,145.2
		c0.2-0.2,0.2-0.4,0.2-0.6c0-0.3-0.1-0.5-0.3-0.7c-0.2-0.2-0.4-0.4-0.7-0.7c-0.2-0.2-0.4-0.3-0.6-0.4c-0.2-0.1-0.4-0.2-0.5-0.2
		c-0.2-0.1-0.3-0.1-0.5,0c-0.1,0-0.3,0.1-0.4,0.3c-0.4,0.5-0.2,1.2,0.7,2c0.4,0.4,0.8,0.6,1.2,0.7
		C172.2,145.6,172.5,145.5,172.8,145.2L172.8,145.2z"/>
	<path fill="#989999" d="M192.1,166.2c-0.2-0.2-0.4-0.4-0.6-0.6c-0.2-0.3-0.3-0.5-0.4-0.8c-0.1-0.3-0.1-0.5-0.1-0.8
		c0.1-0.3,0.2-0.5,0.4-0.8c0.2-0.2,0.4-0.4,0.7-0.5l0.2,0.3c-0.2,0.1-0.3,0.2-0.5,0.4c-0.3,0.3-0.3,0.7-0.2,1.1
		c0.1,0.4,0.3,0.8,0.6,1.1h0c-0.1-0.2-0.1-0.4,0-0.6c0.1-0.2,0.2-0.4,0.3-0.6c0.2-0.3,0.5-0.5,0.9-0.5c0.3,0,0.7,0.1,1,0.4
		c0.3,0.3,0.5,0.6,0.5,1c0.1,0.3-0.1,0.7-0.3,1c-0.3,0.3-0.7,0.5-1.1,0.5C193,166.8,192.6,166.6,192.1,166.2L192.1,166.2z
		 M194.4,166c0.2-0.2,0.2-0.4,0.2-0.7c-0.1-0.3-0.2-0.5-0.4-0.7c-0.2-0.2-0.5-0.3-0.7-0.3c-0.3,0-0.5,0.1-0.7,0.3
		c-0.2,0.2-0.3,0.5-0.3,0.7c0,0.3,0.1,0.5,0.2,0.6c0.1,0.1,0.3,0.2,0.5,0.3c0.2,0.1,0.4,0.1,0.6,0C194,166.3,194.2,166.2,194.4,166
		L194.4,166z M195.9,164.7c-0.1-0.1-0.2-0.1-0.2-0.1c-0.1-0.1-0.3-0.3-0.3-0.5c-0.1-0.2-0.1-0.4-0.1-0.5c0-0.2,0-0.4,0-0.6
		c0-0.2,0-0.4,0.1-0.6c0-0.2,0-0.4,0-0.5c0-0.2,0-0.3-0.1-0.5c-0.1-0.1-0.1-0.3-0.3-0.4c-0.2-0.1-0.4-0.2-0.6-0.2
		c-0.2,0-0.4,0.1-0.6,0.4c-0.1,0.1-0.2,0.3-0.2,0.5c0,0.2,0,0.4,0.1,0.6l-0.4,0.1c-0.1-0.2-0.1-0.5-0.1-0.8c0-0.3,0.1-0.5,0.3-0.7
		c0.3-0.3,0.5-0.5,0.9-0.5c0.3,0,0.6,0.1,0.9,0.3c0.2,0.1,0.3,0.3,0.3,0.4c0.1,0.2,0.1,0.3,0.1,0.5c0,0.2,0,0.3,0,0.5
		c0,0.2,0,0.4-0.1,0.6c0,0.2,0,0.3,0,0.5c0,0.2,0,0.3,0.1,0.5c0.1,0.1,0.1,0.3,0.3,0.4l1.5-1.7l0.3,0.2L195.9,164.7z M202.6,153.8
		c-0.2-0.2-0.4-0.4-0.6-0.6c-0.2-0.2-0.3-0.5-0.4-0.8c-0.1-0.3-0.1-0.5-0.1-0.8c0.1-0.3,0.2-0.5,0.4-0.8c0.2-0.2,0.4-0.4,0.7-0.5
		l0.2,0.4c-0.2,0.1-0.3,0.2-0.5,0.4c-0.3,0.3-0.3,0.7-0.3,1.1c0.1,0.4,0.3,0.8,0.7,1.1l0,0c0-0.2,0-0.4,0-0.6
		c0.1-0.2,0.1-0.4,0.3-0.6c0.3-0.3,0.6-0.5,0.9-0.5c0.4,0,0.7,0.1,1,0.4c0.3,0.3,0.5,0.6,0.5,1c0,0.3-0.1,0.7-0.3,1
		c-0.3,0.4-0.7,0.5-1.2,0.5C203.5,154.3,203,154.1,202.6,153.8L202.6,153.8z M204.8,153.6c0.2-0.2,0.2-0.4,0.2-0.7
		c-0.1-0.3-0.2-0.5-0.4-0.7c-0.2-0.2-0.5-0.3-0.7-0.3c-0.3,0-0.5,0.1-0.7,0.4c-0.2,0.2-0.3,0.4-0.3,0.7c0,0.3,0.1,0.5,0.2,0.6
		c0.1,0.1,0.3,0.2,0.5,0.3c0.2,0.1,0.4,0.1,0.7,0C204.5,153.8,204.7,153.8,204.8,153.6L204.8,153.6z M205.4,151.5
		c-0.1-0.1-0.2-0.2-0.3-0.4c-0.1-0.1-0.1-0.3-0.1-0.4c0-0.1,0-0.3,0-0.3c0-0.1,0-0.1,0-0.2c-0.4,0.1-0.7,0.1-1-0.1
		c-0.3-0.2-0.4-0.5-0.4-0.8c0-0.3,0.1-0.6,0.4-0.9c0.3-0.3,0.5-0.5,0.9-0.5c0.3-0.1,0.6,0,0.9,0.2c0.1,0.1,0.2,0.3,0.3,0.4
		c0.1,0.2,0.1,0.3,0.2,0.5c0,0.1,0,0.2,0.1,0.3c0.4-0.1,0.8-0.1,1.1,0.1c0.3,0.2,0.4,0.5,0.4,0.9c0,0.4-0.1,0.7-0.4,1
		c-0.3,0.3-0.6,0.5-0.9,0.5C206,151.8,205.7,151.7,205.4,151.5L205.4,151.5z M205.8,149.3c0-0.5-0.2-0.8-0.4-1
		c-0.2-0.1-0.4-0.2-0.6-0.2c-0.2,0.1-0.4,0.2-0.6,0.4c-0.2,0.2-0.3,0.4-0.3,0.6c0,0.2,0.1,0.4,0.2,0.5c0.1,0.1,0.1,0.1,0.2,0.1
		c0.1,0,0.2,0,0.3,0c0.1,0,0.1,0,0.3-0.1c0.1,0,0.2-0.1,0.3-0.1c0.1,0,0.2-0.1,0.3-0.1C205.7,149.4,205.8,149.4,205.8,149.3
		L205.8,149.3z M205.7,151.1c0.2,0.2,0.5,0.3,0.7,0.2c0.3,0,0.5-0.2,0.7-0.4c0.2-0.2,0.3-0.4,0.3-0.7c0-0.3-0.1-0.5-0.3-0.6
		c-0.1-0.1-0.2-0.1-0.3-0.1c-0.1,0-0.2,0-0.3,0c-0.1,0-0.2,0.1-0.3,0.1c-0.1,0-0.2,0.1-0.4,0.2c-0.2,0.1-0.3,0.1-0.4,0.2
		C205.3,150.5,205.4,150.9,205.7,151.1L205.7,151.1z M199.2,160.9c-0.3,0.4-0.7,0.6-1.2,0.5c-0.5-0.1-0.9-0.3-1.5-0.8
		c-0.3-0.2-0.5-0.4-0.6-0.6c-0.2-0.2-0.3-0.4-0.4-0.6c-0.1-0.2-0.1-0.5-0.1-0.7c0.1-0.2,0.1-0.5,0.3-0.7c0.2-0.3,0.5-0.4,0.8-0.5
		c0.3,0,0.6,0,0.9,0.1c0.3,0.1,0.6,0.3,1,0.6c0.2,0.2,0.5,0.4,0.6,0.6c0.2,0.2,0.3,0.4,0.4,0.6c0.1,0.2,0.1,0.5,0.1,0.7
		C199.5,160.5,199.3,160.7,199.2,160.9L199.2,160.9z M198.9,160.7c0.2-0.2,0.3-0.4,0.2-0.6c0-0.2-0.1-0.5-0.3-0.7
		c-0.2-0.2-0.4-0.5-0.7-0.7c-0.2-0.2-0.4-0.3-0.6-0.4c-0.2-0.1-0.3-0.2-0.5-0.2c-0.2-0.1-0.3-0.1-0.5,0c-0.1,0-0.3,0.1-0.4,0.3
		c-0.4,0.5-0.2,1.2,0.7,2c0.4,0.4,0.8,0.6,1.2,0.7C198.3,161.1,198.6,161,198.9,160.7L198.9,160.7z M200.5,159.2l-0.3-0.3l0.6-0.7
		l-2.4-2l-0.2-0.1l0,0c0,0.1,0,0.2,0.1,0.3l0,0.7l-0.4,0l-0.1-1.4l0.3-0.3l3,2.5l0.6-0.7l0.3,0.2L200.5,159.2z M201.2,156l-0.3-0.2
		l1.1-1.3l0.3,0.3L201.2,156z M209.7,148.3c-0.3,0.4-0.7,0.6-1.2,0.5c-0.5-0.1-0.9-0.3-1.5-0.8c-0.3-0.2-0.5-0.4-0.6-0.6
		c-0.2-0.2-0.3-0.4-0.4-0.6c-0.1-0.2-0.1-0.4-0.1-0.7c0.1-0.2,0.1-0.5,0.3-0.7c0.2-0.3,0.5-0.4,0.8-0.5c0.3-0.1,0.6,0,0.9,0.1
		c0.3,0.1,0.6,0.4,1,0.6c0.2,0.2,0.5,0.4,0.6,0.6c0.2,0.2,0.3,0.4,0.4,0.6c0.1,0.2,0.1,0.5,0.1,0.7
		C210,147.9,209.9,148.1,209.7,148.3L209.7,148.3z M209.4,148.1c0.2-0.2,0.2-0.4,0.2-0.6c0-0.2-0.1-0.5-0.3-0.7
		c-0.2-0.2-0.4-0.4-0.7-0.7c-0.2-0.2-0.4-0.3-0.6-0.4c-0.2-0.1-0.3-0.2-0.5-0.2c-0.2-0.1-0.3-0.1-0.5,0c-0.1,0-0.3,0.1-0.4,0.3
		c-0.4,0.5-0.2,1.2,0.7,2c0.4,0.4,0.8,0.6,1.2,0.7C208.9,148.5,209.2,148.4,209.4,148.1L209.4,148.1z M212.2,145.4
		c-0.3,0.4-0.7,0.6-1.2,0.5c-0.5-0.1-0.9-0.3-1.5-0.8c-0.3-0.2-0.5-0.4-0.6-0.6c-0.2-0.2-0.3-0.4-0.4-0.6c-0.1-0.2-0.1-0.5-0.1-0.7
		c0.1-0.2,0.1-0.5,0.3-0.7c0.3-0.3,0.5-0.4,0.8-0.5c0.3,0,0.6,0,0.9,0.1c0.3,0.1,0.6,0.3,0.9,0.6c0.3,0.2,0.5,0.4,0.6,0.6
		c0.2,0.2,0.3,0.4,0.4,0.6c0.1,0.2,0.1,0.5,0.1,0.7C212.4,145,212.3,145.2,212.2,145.4L212.2,145.4z M211.8,145.2
		c0.2-0.2,0.2-0.4,0.2-0.6c0-0.3-0.1-0.5-0.3-0.7c-0.2-0.2-0.4-0.4-0.7-0.7c-0.2-0.2-0.4-0.3-0.6-0.4c-0.2-0.1-0.4-0.2-0.5-0.2
		c-0.2-0.1-0.3-0.1-0.5,0c-0.1,0-0.3,0.1-0.4,0.3c-0.4,0.5-0.2,1.2,0.7,2c0.4,0.4,0.8,0.6,1.2,0.7
		C211.3,145.6,211.6,145.5,211.8,145.2L211.8,145.2z"/>
	<path fill="#989999" d="M230,165.9c-0.2-0.2-0.4-0.4-0.6-0.6c-0.1-0.2-0.3-0.5-0.4-0.7c-0.1-0.3-0.1-0.6-0.1-0.9
		c0-0.3,0.1-0.5,0.4-0.8c0.2-0.2,0.4-0.4,0.6-0.5l0.2,0.4c-0.2,0.1-0.4,0.2-0.5,0.4c-0.3,0.3-0.3,0.7-0.2,1.1
		c0.1,0.4,0.3,0.8,0.7,1.1l0,0c-0.1-0.2-0.1-0.4,0-0.6c0.1-0.2,0.2-0.4,0.3-0.6c0.3-0.3,0.5-0.5,0.9-0.5c0.4,0,0.7,0.1,1,0.3
		c0.3,0.3,0.5,0.6,0.5,1c0,0.4-0.1,0.7-0.3,1c-0.3,0.4-0.7,0.5-1.1,0.5C230.9,166.4,230.5,166.2,230,165.9L230,165.9z M232.3,165.7
		c0.2-0.2,0.2-0.4,0.2-0.7c0-0.3-0.2-0.5-0.4-0.7c-0.3-0.2-0.5-0.3-0.7-0.3c-0.3,0-0.5,0.1-0.7,0.4c-0.2,0.2-0.3,0.4-0.3,0.7
		c0,0.3,0.1,0.5,0.2,0.6c0.1,0.1,0.3,0.2,0.5,0.3c0.2,0.1,0.4,0.1,0.6,0C232,166,232.1,165.9,232.3,165.7L232.3,165.7z M232.9,163.6
		c-0.1-0.1-0.2-0.2-0.3-0.4c-0.1-0.1-0.1-0.3-0.1-0.4c0-0.1,0-0.2,0-0.3c0-0.1,0-0.2,0-0.3c-0.4,0.1-0.7,0.1-1-0.1
		c-0.2-0.2-0.4-0.5-0.4-0.8c0-0.3,0.1-0.6,0.4-0.9c0.3-0.3,0.5-0.5,0.9-0.5c0.3-0.1,0.6,0,0.8,0.2c0.1,0.1,0.3,0.3,0.3,0.4
		c0.1,0.2,0.1,0.3,0.2,0.5c0,0.1,0,0.2,0,0.3c0.5-0.2,0.8-0.1,1.1,0.1c0.3,0.2,0.4,0.5,0.4,0.9c0,0.4-0.1,0.7-0.4,1
		c-0.3,0.3-0.6,0.5-0.9,0.5C233.5,163.9,233.2,163.8,232.9,163.6L232.9,163.6z M233.3,161.4c-0.1-0.5-0.2-0.8-0.5-1
		c-0.2-0.1-0.4-0.2-0.6-0.1c-0.2,0-0.4,0.1-0.6,0.3c-0.2,0.2-0.3,0.4-0.3,0.6c0,0.2,0.1,0.4,0.3,0.5c0.1,0.1,0.1,0.1,0.2,0.1
		c0.1,0,0.1,0,0.2,0c0.1,0,0.2,0,0.3-0.1c0.1,0,0.2-0.1,0.3-0.1c0.1,0,0.2-0.1,0.3-0.1C233.2,161.5,233.3,161.5,233.3,161.4
		L233.3,161.4z M233.2,163.2c0.2,0.2,0.4,0.2,0.7,0.2c0.3,0,0.5-0.2,0.7-0.4c0.2-0.2,0.3-0.4,0.3-0.7c0-0.3-0.1-0.5-0.3-0.6
		c-0.1-0.1-0.2-0.1-0.3-0.1c-0.1,0-0.2,0-0.3,0c-0.1,0-0.2,0.1-0.3,0.1c-0.1,0-0.2,0.1-0.4,0.2c-0.1,0.1-0.3,0.1-0.3,0.2
		C232.7,162.6,232.9,163,233.2,163.2L233.2,163.2z M242.3,154.3l-1.6-3.6l-0.2-0.4v0c0,0.1-0.1,0.1-0.2,0.3l-1.3,1.5l-0.3-0.2
		l1.8-2.1l0.2,0.2l1.8,4.1L242.3,154.3z M243.7,151.7l-0.1-0.4c0.4,0.1,0.7-0.1,1-0.4c0.2-0.3,0.3-0.5,0.3-0.8
		c0-0.3-0.1-0.5-0.3-0.7c-0.2-0.2-0.5-0.3-0.8-0.2c-0.3,0-0.5,0.2-0.7,0.4c-0.2,0.2-0.3,0.5-0.3,0.7l-0.3,0.1l-1.4-1.5l1.3-1.6
		l0.3,0.3l-1.1,1.3l0.8,0.8l0.2,0.2l0,0c0-0.2,0.1-0.4,0.3-0.6c0.3-0.3,0.6-0.5,1-0.6c0.4,0,0.7,0.1,1,0.3c0.3,0.3,0.5,0.6,0.5,1
		c0,0.4-0.1,0.7-0.4,1.1c-0.1,0.2-0.3,0.3-0.6,0.5C244.2,151.7,244,151.8,243.7,151.7L243.7,151.7z M237.2,160.5
		c-0.3,0.4-0.7,0.5-1.2,0.5c-0.5-0.1-1-0.3-1.5-0.8c-0.2-0.2-0.5-0.4-0.6-0.6c-0.2-0.2-0.3-0.4-0.4-0.6c-0.1-0.2-0.1-0.4-0.1-0.7
		c0-0.2,0.1-0.4,0.3-0.7c0.2-0.3,0.5-0.4,0.8-0.5c0.3-0.1,0.6,0,0.9,0.1c0.3,0.1,0.6,0.3,0.9,0.6c0.3,0.2,0.5,0.4,0.6,0.6
		c0.2,0.2,0.3,0.4,0.4,0.7c0.1,0.2,0.1,0.4,0.1,0.7C237.5,160,237.4,160.2,237.2,160.5L237.2,160.5z M236.9,160.2
		c0.1-0.2,0.2-0.4,0.2-0.7s-0.1-0.5-0.3-0.7c-0.1-0.2-0.4-0.4-0.7-0.7c-0.2-0.2-0.4-0.3-0.6-0.4c-0.2-0.1-0.4-0.2-0.5-0.3
		c-0.2-0.1-0.3-0.1-0.5,0c-0.2,0.1-0.3,0.1-0.4,0.3c-0.5,0.5-0.2,1.2,0.7,1.9c0.4,0.4,0.8,0.6,1.2,0.7
		C236.4,160.6,236.7,160.5,236.9,160.2L236.9,160.2z M238.6,158.7l-0.3-0.3l0.6-0.7l-2.4-2l-0.2-0.1l0,0c0,0.1,0.1,0.2,0.1,0.3
		l0.1,0.6l-0.4,0l-0.1-1.4l0.2-0.3l3,2.5l0.6-0.7l0.3,0.2L238.6,158.7z M239.3,155.5l-0.3-0.3l1.1-1.3l0.3,0.3L239.3,155.5z
		 M247.4,148.3c-0.3,0.4-0.7,0.6-1.2,0.5c-0.5-0.1-0.9-0.3-1.5-0.8c-0.2-0.2-0.5-0.4-0.6-0.6c-0.2-0.2-0.3-0.4-0.4-0.6
		c-0.1-0.2-0.1-0.4-0.1-0.7c0-0.2,0.1-0.5,0.3-0.7c0.2-0.3,0.5-0.4,0.8-0.5c0.3-0.1,0.6,0,0.9,0.1c0.3,0.1,0.6,0.4,0.9,0.6
		c0.3,0.2,0.5,0.4,0.6,0.6c0.2,0.2,0.3,0.4,0.4,0.6c0.1,0.2,0.1,0.5,0.1,0.7C247.7,147.9,247.5,148.1,247.4,148.3L247.4,148.3z
		 M247.1,148.1c0.1-0.2,0.2-0.4,0.2-0.6c0-0.2-0.1-0.5-0.3-0.7c-0.1-0.2-0.4-0.4-0.7-0.7c-0.2-0.2-0.4-0.3-0.6-0.4
		c-0.2-0.1-0.4-0.2-0.5-0.2c-0.2-0.1-0.4-0.1-0.5,0c-0.2,0-0.3,0.1-0.4,0.3c-0.5,0.5-0.2,1.2,0.7,2c0.4,0.4,0.8,0.6,1.2,0.7
		C246.5,148.5,246.8,148.4,247.1,148.1L247.1,148.1z M249.8,145.4c-0.3,0.4-0.7,0.6-1.2,0.5c-0.5-0.1-0.9-0.3-1.5-0.8
		c-0.3-0.2-0.5-0.4-0.6-0.6c-0.1-0.2-0.3-0.4-0.4-0.6c-0.1-0.2-0.1-0.5-0.1-0.7c0-0.2,0.1-0.5,0.3-0.7c0.2-0.3,0.5-0.4,0.8-0.5
		c0.3,0,0.6,0,0.9,0.1c0.3,0.1,0.6,0.3,0.9,0.6c0.3,0.2,0.5,0.4,0.6,0.6c0.1,0.2,0.3,0.4,0.4,0.6c0.1,0.2,0.1,0.5,0.1,0.7
		C250.1,145,250,145.2,249.8,145.4L249.8,145.4z M249.5,145.2c0.2-0.2,0.3-0.4,0.2-0.6c0-0.3-0.1-0.5-0.3-0.7
		c-0.1-0.2-0.4-0.4-0.7-0.7c-0.2-0.2-0.4-0.3-0.6-0.4c-0.2-0.1-0.4-0.2-0.5-0.2c-0.2-0.1-0.4-0.1-0.5,0c-0.2,0-0.3,0.1-0.4,0.3
		c-0.5,0.5-0.2,1.2,0.7,2c0.4,0.4,0.8,0.6,1.2,0.7C249,145.6,249.3,145.5,249.5,145.2L249.5,145.2z"/>
	<path fill="#989999" d="M11.5,140.9c-0.5,0-0.9-0.2-1.1-0.6c-0.2-0.4-0.3-0.9-0.3-1.6c0-0.3,0-0.6,0.1-0.9c0.1-0.3,0.1-0.5,0.3-0.7
		c0.1-0.2,0.3-0.4,0.5-0.5c0.2-0.1,0.4-0.2,0.7-0.2c0.4,0,0.7,0.1,0.9,0.3c0.2,0.2,0.4,0.5,0.5,0.8c0.1,0.3,0.1,0.7,0.1,1.1
		c0,0.3,0,0.6-0.1,0.9c-0.1,0.3-0.1,0.5-0.3,0.7c-0.1,0.2-0.3,0.4-0.5,0.5C12.1,140.9,11.8,140.9,11.5,140.9L11.5,140.9z
		 M11.5,140.5c0.3,0,0.5-0.1,0.7-0.2c0.1-0.2,0.3-0.4,0.3-0.7c0.1-0.3,0.1-0.6,0.1-0.9c0-0.3,0-0.5-0.1-0.7c0-0.2-0.1-0.4-0.2-0.6
		c-0.1-0.2-0.2-0.3-0.3-0.4c-0.1-0.1-0.3-0.1-0.5-0.1c-0.7,0-1,0.6-1,1.8c0,0.6,0.1,1,0.2,1.3C10.9,140.4,11.2,140.5,11.5,140.5
		L11.5,140.5z M20.3,140.9c-0.5,0-0.9-0.2-1.1-0.6c-0.2-0.4-0.3-0.9-0.3-1.6c0-0.3,0-0.6,0.1-0.9c0.1-0.3,0.1-0.5,0.3-0.7
		c0.1-0.2,0.3-0.4,0.5-0.5c0.2-0.1,0.4-0.2,0.7-0.2c0.4,0,0.7,0.1,0.9,0.3c0.2,0.2,0.4,0.5,0.5,0.8c0.1,0.3,0.1,0.7,0.1,1.1
		c0,0.3,0,0.6-0.1,0.9c-0.1,0.3-0.1,0.5-0.3,0.7c-0.1,0.2-0.3,0.4-0.5,0.5C20.8,140.9,20.6,140.9,20.3,140.9L20.3,140.9z
		 M20.3,140.5c0.3,0,0.5-0.1,0.7-0.2c0.1-0.2,0.3-0.4,0.3-0.7c0.1-0.3,0.1-0.6,0.1-0.9c0-0.3,0-0.5-0.1-0.7c0-0.2-0.1-0.4-0.1-0.6
		c-0.1-0.2-0.2-0.3-0.3-0.4c-0.1-0.1-0.3-0.1-0.5-0.1c-0.7,0-1,0.6-1,1.8c0,0.6,0.1,1,0.2,1.3C19.7,140.4,19.9,140.5,20.3,140.5
		L20.3,140.5z M13.7,141.4l0.3-1.1h0.5l-0.5,1.1H13.7z M15.4,140.3l0.3-0.3c0.2,0.3,0.5,0.5,1,0.5c0.3,0,0.5-0.1,0.7-0.3
		c0.2-0.2,0.3-0.4,0.3-0.7c0-0.3-0.1-0.5-0.3-0.7c-0.2-0.2-0.5-0.3-0.8-0.3c-0.3,0-0.5,0.1-0.8,0.3l-0.3-0.1l0.2-2.1h2.1v0.4h-1.7
		L16,138l0,0.3l0,0c0.2-0.1,0.4-0.2,0.7-0.2c0.4,0,0.8,0.1,1.1,0.4c0.3,0.3,0.4,0.6,0.4,1c0,0.4-0.1,0.7-0.5,1
		c-0.3,0.3-0.6,0.4-1.1,0.4c-0.2,0-0.5-0.1-0.7-0.1C15.7,140.7,15.5,140.5,15.4,140.3L15.4,140.3z"/>
	<path fill="#989999" d="M10.1,118v-0.4H11v-3.1l0-0.2h0c0,0.1-0.1,0.1-0.2,0.3l-0.5,0.4l-0.3-0.3l1-1h0.4v3.9h0.9v0.4H10.1z
		 M12.9,118.6l0.3-1.1h0.5l-0.5,1.1H12.9z M16.1,118.1c-0.5,0-0.9-0.2-1.1-0.6c-0.2-0.4-0.3-0.9-0.3-1.6c0-0.3,0-0.6,0.1-0.9
		c0.1-0.3,0.1-0.5,0.3-0.7c0.1-0.2,0.3-0.4,0.5-0.5c0.2-0.1,0.4-0.1,0.7-0.1c0.4,0,0.7,0.1,0.9,0.3c0.2,0.2,0.4,0.5,0.5,0.8
		c0.1,0.3,0.1,0.7,0.1,1.1c0,0.3,0,0.6-0.1,0.9c-0.1,0.3-0.1,0.5-0.3,0.7c-0.1,0.2-0.3,0.4-0.5,0.5C16.6,118,16.4,118.1,16.1,118.1
		L16.1,118.1z M16.1,117.7c0.3,0,0.5-0.1,0.7-0.2c0.1-0.2,0.3-0.4,0.3-0.7c0.1-0.3,0.1-0.6,0.1-0.9c0-0.3,0-0.5-0.1-0.7
		c0-0.2-0.1-0.4-0.1-0.6c-0.1-0.2-0.2-0.3-0.3-0.4c-0.1-0.1-0.3-0.1-0.5-0.1c-0.7,0-1,0.6-1,1.8c0,0.6,0.1,1,0.2,1.3
		C15.5,117.6,15.7,117.7,16.1,117.7L16.1,117.7z M19.9,118.1c-0.5,0-0.9-0.2-1.1-0.6c-0.2-0.4-0.3-0.9-0.3-1.6c0-0.3,0-0.6,0.1-0.9
		c0.1-0.3,0.1-0.5,0.3-0.7c0.1-0.2,0.3-0.4,0.5-0.5c0.2-0.1,0.4-0.1,0.7-0.1c0.3,0,0.6,0.1,0.9,0.3c0.2,0.2,0.4,0.5,0.5,0.8
		c0.1,0.3,0.1,0.7,0.1,1.1c0,0.3,0,0.6-0.1,0.9c-0.1,0.3-0.1,0.5-0.3,0.7c-0.1,0.2-0.3,0.4-0.5,0.5C20.4,118,20.1,118.1,19.9,118.1
		L19.9,118.1z M19.9,117.7c0.3,0,0.5-0.1,0.6-0.2c0.1-0.2,0.3-0.4,0.3-0.7c0.1-0.3,0.1-0.6,0.1-0.9c0-0.3,0-0.5-0.1-0.7
		c0-0.2-0.1-0.4-0.1-0.6c-0.1-0.2-0.2-0.3-0.3-0.4c-0.1-0.1-0.3-0.1-0.5-0.1c-0.7,0-1.1,0.6-1.1,1.8c0,0.6,0.1,1,0.2,1.3
		C19.2,117.6,19.5,117.7,19.9,117.7L19.9,117.7z"/>
	<path fill="#989999" d="M10.1,95v-0.4H11v-3.1l0-0.3h0c0,0.1-0.1,0.1-0.2,0.3L10.4,92l-0.3-0.3l1-1h0.4v3.9h0.9V95H10.1z
		 M12.9,95.6l0.3-1.1h0.5l-0.5,1.1H12.9z M14.5,94.5l0.3-0.3c0.2,0.3,0.5,0.5,1,0.5c0.3,0,0.5-0.1,0.7-0.3c0.2-0.2,0.3-0.4,0.3-0.7
		c0-0.3-0.1-0.5-0.3-0.7c-0.2-0.2-0.5-0.3-0.8-0.3c-0.3,0-0.5,0.1-0.8,0.2l-0.3-0.1l0.2-2.1H17v0.4h-1.7l-0.1,1.1l-0.1,0.2h0
		c0.2-0.1,0.4-0.2,0.7-0.2c0.4,0,0.8,0.1,1.1,0.4c0.3,0.3,0.4,0.6,0.4,1c0,0.4-0.1,0.7-0.4,1c-0.3,0.3-0.6,0.4-1.1,0.4
		c-0.3,0-0.5-0.1-0.7-0.2C14.9,94.9,14.7,94.7,14.5,94.5L14.5,94.5z M19.5,95.1c-0.5,0-0.9-0.2-1.1-0.6c-0.2-0.4-0.4-0.9-0.4-1.6
		c0-0.3,0-0.6,0.1-0.9c0.1-0.3,0.1-0.5,0.3-0.7c0.1-0.2,0.3-0.4,0.5-0.5c0.2-0.1,0.4-0.2,0.7-0.2c0.4,0,0.7,0.1,0.9,0.3
		s0.4,0.5,0.5,0.8c0.1,0.3,0.1,0.7,0.1,1.1c0,0.3,0,0.6-0.1,0.9c-0.1,0.3-0.1,0.5-0.3,0.7c-0.1,0.2-0.3,0.4-0.5,0.5
		C20,95.1,19.8,95.1,19.5,95.1L19.5,95.1z M19.5,94.7c0.3,0,0.5-0.1,0.6-0.3c0.2-0.2,0.3-0.4,0.3-0.6c0.1-0.3,0.1-0.6,0.1-0.9
		c0-0.3,0-0.5-0.1-0.7c0-0.2-0.1-0.4-0.2-0.6c-0.1-0.2-0.2-0.3-0.3-0.4c-0.1-0.1-0.3-0.1-0.5-0.1c-0.7,0-1,0.6-1,1.8
		c0,0.6,0.1,1,0.2,1.3C18.9,94.6,19.1,94.7,19.5,94.7L19.5,94.7z"/>
	<path fill="#989999" d="M10.1,71.9c0-0.1,0-0.2,0-0.3c0-0.2,0.1-0.4,0.1-0.6c0.1-0.2,0.2-0.3,0.3-0.5c0.1-0.1,0.3-0.3,0.4-0.4
		c0.2-0.1,0.3-0.2,0.5-0.3c0.2-0.1,0.3-0.2,0.4-0.3c0.1-0.1,0.2-0.2,0.3-0.4c0.1-0.1,0.1-0.3,0.1-0.4c0-0.3-0.1-0.5-0.2-0.6
		C11.9,68,11.6,68,11.4,68c-0.2,0-0.4,0.1-0.5,0.1c-0.2,0.1-0.3,0.3-0.4,0.4l-0.3-0.2c0.1-0.2,0.3-0.4,0.5-0.6
		c0.2-0.1,0.5-0.2,0.8-0.2c0.4,0,0.7,0.1,0.9,0.3c0.3,0.2,0.4,0.5,0.4,0.9c0,0.2-0.1,0.4-0.1,0.5c-0.1,0.2-0.2,0.3-0.3,0.4
		c-0.1,0.1-0.3,0.3-0.4,0.4c-0.2,0.1-0.3,0.2-0.5,0.3c-0.2,0.1-0.3,0.2-0.4,0.3c-0.1,0.1-0.2,0.2-0.3,0.4c-0.1,0.1-0.1,0.3-0.1,0.4
		h2.3v0.4H10.1z M13.4,72.5l0.3-1.1h0.5l-0.5,1.1H13.4z M16.7,72c-0.5,0-0.9-0.2-1.1-0.6c-0.2-0.4-0.3-0.9-0.3-1.6
		c0-0.3,0-0.6,0.1-0.9c0.1-0.3,0.1-0.5,0.3-0.7c0.1-0.2,0.3-0.4,0.5-0.5c0.2-0.1,0.4-0.2,0.7-0.2c0.3,0,0.6,0.1,0.9,0.3
		c0.2,0.2,0.4,0.5,0.5,0.8c0.1,0.3,0.1,0.7,0.1,1.1c0,0.3,0,0.6-0.1,0.9c-0.1,0.3-0.1,0.5-0.3,0.7c-0.1,0.2-0.3,0.4-0.5,0.5
		C17.1,71.9,16.9,72,16.7,72L16.7,72z M16.7,71.6c0.3,0,0.5-0.1,0.6-0.2c0.1-0.2,0.3-0.4,0.3-0.7c0.1-0.3,0.1-0.6,0.1-0.9
		c0-0.3,0-0.5-0.1-0.7c0-0.2-0.1-0.4-0.1-0.6c-0.1-0.2-0.2-0.3-0.3-0.4C17,68,16.9,68,16.7,68c-0.7,0-1.1,0.6-1.1,1.8
		c0,0.6,0.1,1,0.2,1.3C16,71.4,16.3,71.6,16.7,71.6L16.7,71.6z M20.4,72c-0.5,0-0.9-0.2-1.1-0.6c-0.2-0.4-0.3-0.9-0.3-1.6
		c0-0.3,0-0.6,0.1-0.9c0.1-0.3,0.1-0.5,0.3-0.7c0.1-0.2,0.3-0.4,0.5-0.5c0.2-0.1,0.4-0.2,0.7-0.2c0.3,0,0.6,0.1,0.9,0.3
		c0.2,0.2,0.4,0.5,0.5,0.8c0.1,0.3,0.1,0.7,0.1,1.1c0,0.3,0,0.6-0.1,0.9c-0.1,0.3-0.1,0.5-0.3,0.7c-0.1,0.2-0.3,0.4-0.5,0.5
		C20.9,71.9,20.7,72,20.4,72L20.4,72z M20.4,71.6c0.3,0,0.5-0.1,0.6-0.2c0.1-0.2,0.3-0.4,0.3-0.7c0.1-0.3,0.1-0.6,0.1-0.9
		c0-0.3,0-0.5,0-0.7c-0.1-0.2-0.1-0.4-0.2-0.6c-0.1-0.2-0.2-0.3-0.3-0.4C20.8,68,20.6,68,20.4,68c-0.7,0-1.1,0.6-1.1,1.8
		c0,0.6,0.1,1,0.2,1.3C19.8,71.4,20,71.6,20.4,71.6L20.4,71.6z"/>
	<path fill="#989999" d="M10.1,49.4c0-0.1,0-0.2,0-0.3c0-0.2,0.1-0.4,0.1-0.6c0.1-0.2,0.2-0.3,0.3-0.5c0.1-0.1,0.3-0.3,0.4-0.4
		c0.2-0.1,0.3-0.2,0.5-0.3c0.2-0.1,0.3-0.2,0.4-0.3c0.1-0.1,0.2-0.2,0.3-0.4c0.1-0.1,0.1-0.3,0.1-0.5c0-0.2-0.1-0.4-0.2-0.6
		c-0.2-0.1-0.4-0.2-0.7-0.2c-0.2,0-0.4,0.1-0.5,0.2c-0.2,0.1-0.3,0.3-0.4,0.4l-0.3-0.2c0.1-0.2,0.3-0.4,0.5-0.5
		c0.2-0.1,0.5-0.2,0.8-0.2c0.4,0,0.7,0.1,0.9,0.3c0.3,0.2,0.4,0.5,0.4,0.9c0,0.2-0.1,0.4-0.1,0.6c-0.1,0.1-0.2,0.3-0.3,0.4
		c-0.1,0.1-0.3,0.2-0.4,0.3c-0.2,0.1-0.3,0.2-0.5,0.3c-0.2,0.1-0.3,0.2-0.4,0.3c-0.1,0.1-0.2,0.2-0.3,0.4c-0.1,0.1-0.1,0.3-0.1,0.4
		h2.3v0.4H10.1z M13.4,50l0.3-1.1h0.5L13.8,50H13.4z M15.1,48.9l0.3-0.3c0.2,0.3,0.5,0.5,1,0.5c0.3,0,0.5-0.1,0.7-0.3
		c0.2-0.2,0.3-0.5,0.3-0.7c0-0.3-0.1-0.5-0.3-0.7c-0.2-0.2-0.5-0.3-0.8-0.3c-0.3,0-0.5,0.1-0.8,0.2l-0.3-0.1l0.2-2.1h2.1v0.4h-1.7
		l-0.1,1.1l0,0.2l0,0c0.2-0.1,0.4-0.2,0.7-0.2c0.4,0,0.8,0.1,1.1,0.4c0.3,0.3,0.4,0.6,0.4,1c0,0.4-0.1,0.7-0.4,1
		c-0.3,0.3-0.6,0.4-1.1,0.4c-0.2,0-0.5-0.1-0.7-0.2C15.4,49.2,15.2,49,15.1,48.9L15.1,48.9z M20,49.5c-0.5,0-0.9-0.2-1.1-0.6
		c-0.2-0.4-0.3-0.9-0.3-1.6c0-0.3,0-0.6,0.1-0.9c0.1-0.3,0.1-0.5,0.3-0.7c0.1-0.2,0.3-0.4,0.5-0.5c0.2-0.1,0.4-0.2,0.7-0.2
		c0.4,0,0.7,0.1,0.9,0.3c0.2,0.2,0.4,0.5,0.5,0.8c0.1,0.3,0.1,0.7,0.1,1.1c0,0.3,0,0.6-0.1,0.9c-0.1,0.3-0.1,0.5-0.3,0.7
		c-0.1,0.2-0.3,0.4-0.5,0.5C20.5,49.4,20.3,49.5,20,49.5L20,49.5z M20,49.1c0.3,0,0.5-0.1,0.7-0.3c0.1-0.2,0.3-0.4,0.3-0.6
		c0.1-0.3,0.1-0.6,0.1-0.9c0-0.3,0-0.5-0.1-0.7c0-0.2-0.1-0.4-0.2-0.6c-0.1-0.2-0.2-0.3-0.3-0.4c-0.1-0.1-0.3-0.1-0.5-0.1
		c-0.7,0-1,0.6-1,1.8c0,0.6,0.1,1,0.2,1.3C19.4,48.9,19.7,49.1,20,49.1L20,49.1z"/>
	<path fill="#989999" d="M10.1,25.4l0.3-0.3c0.1,0.1,0.3,0.3,0.5,0.3c0.2,0.1,0.4,0.1,0.6,0.1c0.3,0,0.5-0.1,0.7-0.3
		c0.2-0.2,0.3-0.4,0.3-0.7c0-0.3-0.1-0.5-0.3-0.7c-0.2-0.1-0.5-0.2-0.8-0.2H11l-0.1-0.3l1.1-1.3l0.2-0.2v0c-0.1,0-0.2,0-0.3,0h-1.6
		v-0.4h2.5v0.3l-1.3,1.5c0.1,0,0.3,0,0.4,0.1c0.1,0.1,0.3,0.1,0.4,0.2c0.1,0.1,0.3,0.2,0.3,0.4c0.1,0.2,0.1,0.4,0.1,0.6
		c0,0.3-0.1,0.7-0.4,0.9c-0.3,0.3-0.6,0.4-1,0.4c-0.2,0-0.5-0.1-0.7-0.2C10.5,25.8,10.3,25.6,10.1,25.4L10.1,25.4z M13.5,26.6
		l0.3-1.1h0.5l-0.5,1.1H13.5z M16.7,26c-0.5,0-0.9-0.2-1.1-0.6c-0.2-0.4-0.3-0.9-0.3-1.6c0-0.3,0-0.6,0.1-0.9
		c0.1-0.3,0.1-0.5,0.3-0.7c0.1-0.2,0.3-0.4,0.5-0.5c0.2-0.1,0.4-0.2,0.7-0.2c0.4,0,0.7,0.1,0.9,0.3c0.2,0.2,0.4,0.5,0.5,0.8
		c0.1,0.3,0.1,0.7,0.1,1.1c0,0.3,0,0.6-0.1,0.9c-0.1,0.3-0.1,0.5-0.3,0.7c-0.1,0.2-0.3,0.4-0.5,0.5C17.2,26,17,26,16.7,26L16.7,26z
		 M16.7,25.6c0.3,0,0.5-0.1,0.7-0.3c0.1-0.2,0.3-0.4,0.3-0.6c0.1-0.3,0.1-0.6,0.1-0.9c0-0.3,0-0.5-0.1-0.7c0-0.2-0.1-0.4-0.1-0.6
		c-0.1-0.2-0.2-0.3-0.3-0.4C17.1,22,16.9,22,16.7,22c-0.7,0-1,0.6-1,1.8c0,0.6,0.1,1,0.2,1.3C16.1,25.5,16.3,25.6,16.7,25.6
		L16.7,25.6z M20.5,26c-0.5,0-0.9-0.2-1.1-0.6C19.1,25,19,24.5,19,23.8c0-0.3,0-0.6,0.1-0.9c0.1-0.3,0.1-0.5,0.3-0.7
		c0.1-0.2,0.3-0.4,0.5-0.5c0.2-0.1,0.4-0.2,0.7-0.2c0.3,0,0.6,0.1,0.9,0.3c0.2,0.2,0.4,0.5,0.5,0.8c0.1,0.3,0.1,0.7,0.1,1.1
		c0,0.3,0,0.6-0.1,0.9c-0.1,0.3-0.1,0.5-0.3,0.7c-0.1,0.2-0.3,0.4-0.5,0.5C21,26,20.7,26,20.5,26L20.5,26z M20.5,25.6
		c0.3,0,0.5-0.1,0.6-0.3c0.1-0.2,0.3-0.4,0.3-0.6c0.1-0.3,0.1-0.6,0.1-0.9c0-0.3,0-0.5-0.1-0.7c0-0.2-0.1-0.4-0.1-0.6
		c-0.1-0.2-0.2-0.3-0.3-0.4C20.8,22,20.7,22,20.5,22c-0.7,0-1.1,0.6-1.1,1.8c0,0.6,0.1,1,0.2,1.3C19.8,25.5,20.1,25.6,20.5,25.6
		L20.5,25.6z"/>
	<line fill="none" stroke="#AFB0B1" stroke-width="0.2286" stroke-miterlimit="10" x1="26.6" y1="116.1" x2="294.6" y2="116.1"/>
	<line fill="none" stroke="#AFB0B1" stroke-width="0.2286" stroke-miterlimit="10" x1="26.6" y1="93" x2="294.6" y2="93"/>
	<line fill="none" stroke="#AFB0B1" stroke-width="0.2286" stroke-miterlimit="10" x1="26.6" y1="70.2" x2="294.6" y2="70.2"/>
	<line fill="none" stroke="#AFB0B1" stroke-width="0.2286" stroke-miterlimit="10" x1="26.6" y1="47.2" x2="294.6" y2="47.2"/>
	<line fill="none" stroke="#AFB0B1" stroke-width="0.2286" stroke-miterlimit="10" x1="26.6" y1="24.3" x2="294.6" y2="24.3"/>
	<path fill="#43AD4B" d="M201.2,68.2c1,0,1.8,0.8,1.8,1.8s-0.8,1.8-1.8,1.8c-1,0-1.8-0.8-1.8-1.8S200.3,68.2,201.2,68.2L201.2,68.2z
		 M124.2,86.7c1,0,1.8,0.8,1.8,1.8c0,1-0.8,1.8-1.8,1.8c-1,0-1.8-0.8-1.8-1.8C122.4,87.5,123.2,86.7,124.2,86.7L124.2,86.7z
		 M162.4,77.5c1,0,1.8,0.8,1.8,1.8s-0.8,1.8-1.8,1.8s-1.8-0.8-1.8-1.8S161.4,77.5,162.4,77.5L162.4,77.5z M85.9,95.9
		c1,0,1.8,0.8,1.8,1.8c0,1-0.8,1.8-1.8,1.8c-1,0-1.8-0.8-1.8-1.8C84.1,96.7,84.9,95.9,85.9,95.9L85.9,95.9z M47.3,102.8
		c1,0,1.8,0.8,1.8,1.8s-0.8,1.8-1.8,1.8s-1.8-0.8-1.8-1.8S46.3,102.8,47.3,102.8L47.3,102.8z M198.7,71.1l-33.5,8
		c0-0.3-0.1-0.6-0.2-0.8l33.5-8C198.5,70.6,198.6,70.8,198.7,71.1L198.7,71.1z M159.9,80.4l-33,7.9c0-0.3-0.1-0.6-0.2-0.8l33-7.9
		C159.7,79.9,159.8,80.2,159.9,80.4L159.9,80.4z M121.6,89.6l-32.9,7.9c0-0.3-0.1-0.6-0.2-0.8l32.9-7.9
		C121.4,89.1,121.5,89.4,121.6,89.6L121.6,89.6z M83.3,98.6l-33.3,6c0-0.3-0.1-0.6-0.2-0.9l33.3-6C83.2,98.1,83.3,98.4,83.3,98.6
		L83.3,98.6z"/>
	<path fill="none" stroke="#010202" stroke-width="0.5714" stroke-miterlimit="10" d="M28.5,141.8V22.9 M301,138.8H26.6"/>
	<path fill="#989999" d="M267,166.8l-1.6-3.6l-0.1-0.4h0c0,0.1-0.1,0.1-0.2,0.3l-1.3,1.5l-0.3-0.3l1.8-2.1l0.2,0.2l1.8,4.1
		L267,166.8z M268.5,164.2l-0.1-0.4c0.4,0,0.7-0.1,1-0.4c0.2-0.2,0.3-0.5,0.3-0.8c0-0.3-0.1-0.5-0.4-0.7c-0.2-0.2-0.5-0.3-0.7-0.2
		c-0.3,0-0.5,0.2-0.7,0.4c-0.2,0.2-0.3,0.5-0.3,0.7l-0.2,0.1l-1.5-1.5l1.3-1.6l0.3,0.2l-1.1,1.3l0.8,0.8l0.2,0.2v0
		c0-0.2,0.1-0.4,0.3-0.6c0.3-0.3,0.6-0.5,1-0.5c0.4-0.1,0.7,0.1,1,0.3c0.3,0.3,0.5,0.6,0.5,1c0,0.4-0.1,0.7-0.4,1.1
		c-0.1,0.2-0.3,0.3-0.6,0.4C269,164.2,268.8,164.2,268.5,164.2L268.5,164.2z M276.1,154.1c-0.1-0.1-0.2-0.2-0.3-0.4
		c-0.1-0.1-0.1-0.3-0.1-0.4c0-0.1,0-0.2,0-0.3c0-0.1,0-0.2,0-0.3c-0.4,0.1-0.7,0.1-1-0.1c-0.2-0.2-0.3-0.5-0.4-0.8
		c0-0.3,0.1-0.6,0.4-0.9c0.3-0.3,0.5-0.5,0.9-0.5c0.3-0.1,0.6,0,0.8,0.2c0.1,0.1,0.3,0.3,0.3,0.4c0.1,0.2,0.1,0.3,0.2,0.5
		c0,0.1,0,0.2,0,0.3c0.5-0.2,0.8-0.1,1.1,0.1c0.3,0.2,0.4,0.5,0.4,0.9c0,0.4-0.1,0.7-0.4,1c-0.3,0.3-0.6,0.5-0.9,0.5
		C276.7,154.4,276.4,154.4,276.1,154.1L276.1,154.1z M276.6,152c0-0.5-0.2-0.8-0.4-1c-0.2-0.1-0.4-0.2-0.6-0.1
		c-0.2,0-0.4,0.1-0.6,0.3c-0.2,0.2-0.3,0.4-0.3,0.6c0,0.2,0.1,0.4,0.3,0.5c0.1,0.1,0.1,0.1,0.2,0.1c0.1,0,0.2,0,0.2,0
		c0.1,0,0.2,0,0.3-0.1c0.1,0,0.2-0.1,0.3-0.1c0.1,0,0.2-0.1,0.3-0.1C276.4,152,276.5,152,276.6,152L276.6,152z M276.4,153.8
		c0.2,0.2,0.4,0.2,0.7,0.2c0.3,0,0.5-0.2,0.6-0.4c0.2-0.2,0.3-0.4,0.3-0.7c0-0.3-0.1-0.5-0.3-0.6c-0.1-0.1-0.2-0.1-0.3-0.1
		c-0.1,0-0.2,0-0.3,0c-0.1,0-0.2,0.1-0.3,0.1c-0.1,0-0.2,0.1-0.4,0.2c-0.2,0.1-0.3,0.1-0.4,0.2C276,153.1,276.1,153.5,276.4,153.8
		L276.4,153.8z M279,151.8l-0.1-0.4c0.2,0,0.4-0.1,0.6-0.1c0.2-0.1,0.4-0.2,0.5-0.4c0.2-0.2,0.3-0.4,0.3-0.7c0-0.3-0.1-0.5-0.3-0.7
		c-0.2-0.2-0.5-0.3-0.7-0.2c-0.3,0.1-0.5,0.2-0.7,0.4l-0.2,0.2l-0.3-0.1l-0.3-1.7l0-0.3l0,0c-0.1,0.1-0.1,0.1-0.2,0.3l-1,1.3
		l-0.3-0.3l1.6-1.9l0.2,0.2l0.3,1.9c0.1-0.1,0.2-0.2,0.3-0.3c0.1-0.1,0.3-0.1,0.4-0.2c0.2-0.1,0.3-0.1,0.5,0c0.2,0,0.3,0.1,0.5,0.3
		c0.3,0.3,0.5,0.5,0.5,0.9c0,0.4-0.1,0.7-0.4,1c-0.1,0.2-0.3,0.3-0.6,0.5C279.5,151.7,279.2,151.8,279,151.8L279,151.8z
		 M272.2,160.8c-0.3,0.4-0.7,0.5-1.2,0.5c-0.5-0.1-0.9-0.3-1.5-0.8c-0.2-0.2-0.4-0.4-0.6-0.6c-0.2-0.2-0.3-0.4-0.4-0.7
		c-0.1-0.2-0.1-0.4-0.1-0.7c0-0.2,0.1-0.4,0.3-0.6c0.2-0.3,0.5-0.4,0.8-0.5c0.3-0.1,0.6,0,0.9,0.1c0.3,0.1,0.6,0.3,0.9,0.6
		c0.3,0.2,0.5,0.4,0.6,0.6c0.2,0.2,0.3,0.4,0.4,0.6c0.1,0.2,0.1,0.4,0.1,0.7C272.4,160.4,272.4,160.6,272.2,160.8L272.2,160.8z
		 M271.9,160.6c0.2-0.2,0.2-0.4,0.2-0.7c0-0.2-0.1-0.5-0.3-0.7c-0.2-0.2-0.4-0.4-0.7-0.7c-0.2-0.2-0.4-0.3-0.6-0.4
		c-0.2-0.1-0.4-0.2-0.5-0.3c-0.2,0-0.3,0-0.5,0c-0.1,0.1-0.3,0.1-0.4,0.3c-0.5,0.5-0.2,1.2,0.7,2c0.5,0.3,0.8,0.6,1.2,0.7
		C271.3,161,271.6,160.8,271.9,160.6L271.9,160.6z M273.6,159l-0.3-0.2l0.6-0.7l-2.4-2l-0.2-0.2h0c0,0.1,0.1,0.2,0.1,0.3l0.1,0.6
		l-0.4,0.1l-0.1-1.4l0.3-0.3l3,2.5l0.6-0.7l0.3,0.3L273.6,159z M274.2,155.8l-0.3-0.3l1.1-1.3l0.3,0.2L274.2,155.8z M282.6,148.3
		c-0.3,0.4-0.7,0.6-1.2,0.5c-0.5-0.1-0.9-0.3-1.5-0.8c-0.3-0.2-0.5-0.4-0.6-0.6c-0.2-0.2-0.3-0.4-0.4-0.6s-0.1-0.4-0.1-0.7
		c0.1-0.2,0.1-0.5,0.3-0.7c0.3-0.3,0.5-0.4,0.8-0.5c0.3-0.1,0.6,0,0.9,0.1c0.3,0.1,0.6,0.4,0.9,0.6c0.3,0.2,0.5,0.4,0.6,0.6
		c0.2,0.2,0.3,0.4,0.4,0.6c0.1,0.2,0.1,0.5,0.1,0.7C282.9,147.9,282.8,148.1,282.6,148.3L282.6,148.3z M282.3,148.1
		c0.2-0.2,0.2-0.4,0.2-0.6c0-0.2-0.1-0.5-0.3-0.7c-0.2-0.2-0.4-0.4-0.7-0.7c-0.2-0.2-0.4-0.3-0.6-0.4c-0.2-0.1-0.3-0.2-0.5-0.2
		c-0.2-0.1-0.3-0.1-0.5,0c-0.1,0-0.3,0.1-0.4,0.3c-0.4,0.5-0.2,1.2,0.7,2c0.4,0.4,0.8,0.6,1.2,0.7
		C281.8,148.5,282.1,148.4,282.3,148.1L282.3,148.1z M285.1,145.4c-0.3,0.4-0.7,0.6-1.2,0.5c-0.5-0.1-0.9-0.3-1.5-0.8
		c-0.3-0.2-0.5-0.4-0.6-0.6c-0.2-0.2-0.3-0.4-0.4-0.6c-0.1-0.2-0.1-0.5-0.1-0.7c0.1-0.2,0.1-0.5,0.3-0.7c0.2-0.3,0.5-0.4,0.8-0.5
		c0.3,0,0.6,0,0.9,0.1c0.3,0.1,0.6,0.3,0.9,0.6c0.3,0.2,0.5,0.4,0.6,0.6c0.2,0.2,0.3,0.4,0.4,0.6c0.1,0.2,0.1,0.5,0.1,0.7
		C285.4,145,285.2,145.2,285.1,145.4L285.1,145.4z M284.8,145.2c0.2-0.2,0.2-0.4,0.2-0.6c0-0.3-0.1-0.5-0.3-0.7
		c-0.2-0.2-0.4-0.4-0.7-0.7c-0.2-0.2-0.4-0.3-0.6-0.4c-0.2-0.1-0.4-0.2-0.5-0.2c-0.2-0.1-0.3-0.1-0.5,0c-0.1,0-0.3,0.1-0.4,0.3
		c-0.4,0.5-0.2,1.2,0.7,2c0.4,0.4,0.8,0.6,1.2,0.7C284.2,145.6,284.5,145.5,284.8,145.2L284.8,145.2z"/>
	<path fill="#43AD4B" d="M239.7,58.7c1,0,1.8,0.8,1.8,1.8s-0.8,1.8-1.8,1.8c-1,0-1.8-0.8-1.8-1.8S238.7,58.7,239.7,58.7L239.7,58.7z
		 M237.1,61.6l-33.5,8c0-0.3-0.1-0.6-0.2-0.8l33.5-8C236.9,61,237,61.3,237.1,61.6L237.1,61.6z"/>
	<path fill="#43AD4B" d="M276.8,45.3c1-0.1,1.9,0.6,2,1.6c0.1,1-0.6,1.9-1.6,2c-1,0.1-1.9-0.6-2-1.6
		C275.1,46.3,275.8,45.4,276.8,45.3L276.8,45.3z M274.6,48.5l-32.5,11.6c-0.1-0.3-0.1-0.6-0.3-0.8l32.5-11.6
		C274.4,48,274.5,48.2,274.6,48.5L274.6,48.5z"/>
</g>
</svg>
