<?xml version="1.0" encoding="utf-8"?>
<!-- Generator: Adobe Illustrator 19.2.1, SVG Export Plug-In . SVG Version: 6.00 Build 0)  -->
<svg version="1.1" id="Слой_1" xmlns="http://www.w3.org/2000/svg" xmlns:xlink="http://www.w3.org/1999/xlink" x="0px" y="0px"
	 viewBox="0 0 304.5 175.5" style="enable-background:new 0 0 304.5 175.5;" xml:space="preserve">
<style type="text/css">
	.st0{fill:#F7F7F7;}
	.st1{fill:#010202;}
	.st2{fill:#989999;}
	.st3{fill:none;stroke:#AFB0B1;stroke-width:0.2286;stroke-miterlimit:10;}
	.st4{fill:#43AD4B;}
	.st5{fill:none;stroke:#010202;stroke-width:0.5714;stroke-miterlimit:10;}
</style>
<rect x="0.5" y="0.5" class="st0" width="303.5" height="174.5"/>
<g>
	<path class="st1" d="M29.9,16.8v-0.6h0.6c0-0.2,0-0.4,0-0.7h-0.6v-0.7h0.7c0.2-0.8,0.6-1.4,1.3-1.9c0.6-0.5,1.3-0.7,2.1-0.7
		c0.3,0,0.7,0.1,1,0.1l-0.2,0.9c-0.2-0.1-0.5-0.1-0.8-0.1c-0.6,0-1.1,0.1-1.5,0.5c-0.4,0.3-0.7,0.7-0.9,1.2h2.8l-0.1,0.7h-2.8
		c0,0.2,0,0.4,0,0.7h2.7l-0.1,0.6h-2.4c0.1,0.5,0.4,1,0.9,1.3c0.4,0.3,0.9,0.5,1.5,0.5c0.3,0,0.6,0,0.9-0.1l0.2,0.9
		c-0.3,0.1-0.7,0.2-1.1,0.2c-0.8,0-1.6-0.3-2.2-0.8c-0.6-0.5-1-1.1-1.2-2H29.9z"/>
	<path class="st1" d="M266.1,140.7v-0.6h0.6c-0.1-0.2-0.1-0.4,0-0.7h-0.5v-0.6h0.7c0.2-0.8,0.6-1.4,1.3-1.9c0.6-0.5,1.3-0.7,2.2-0.7
		c0.3,0,0.7,0,1,0.1l-0.2,0.9c-0.2-0.1-0.5-0.1-0.8-0.1c-0.5,0-1,0.2-1.5,0.5c-0.4,0.3-0.7,0.7-0.9,1.2h2.9l-0.1,0.6H268
		c-0.1,0.2-0.1,0.5,0,0.7h2.7l-0.1,0.6h-2.4c0.2,0.5,0.5,1,0.9,1.3s0.9,0.5,1.5,0.5c0.3,0,0.7,0,0.9-0.1l0.2,0.9
		c-0.3,0.1-0.7,0.2-1.1,0.2c-0.9,0-1.6-0.2-2.2-0.7s-1-1.1-1.2-2L266.1,140.7L266.1,140.7z M274.6,143.7l-2.5-7.9h0.9l2.6,7.9H274.6
		z M276.8,143.3v-7.1h4.1v0.9h-3.1v2.2h2.5v0.9h-2.5v2.3h3.3v0.9L276.8,143.3L276.8,143.3z M284.1,143.3V137h-2.5v-0.9h5.9v0.9H285
		v6.3H284.1z M288.7,143.3v-7.1h1v3.1h3.7v-3.1h1v7.1h-1v-3.1h-3.7v3.1H288.7z"/>
	<path class="st2" d="M46.4,165.1l-0.1-0.4c0.2,0,0.4-0.1,0.6-0.1c0.2-0.1,0.4-0.2,0.5-0.4c0.2-0.2,0.3-0.5,0.3-0.7
		c0-0.3-0.1-0.5-0.3-0.6c-0.2-0.2-0.5-0.3-0.7-0.2c-0.3,0.1-0.5,0.2-0.7,0.4l-0.2,0.2l-0.3-0.1l-0.3-1.6v-0.3l0,0
		c-0.1,0.1-0.1,0.2-0.2,0.3l-1,1.2l-0.3-0.2l1.6-1.9l0.2,0.2l0.3,1.9c0.1-0.1,0.2-0.2,0.3-0.3s0.3-0.1,0.4-0.2c0.2,0,0.3,0,0.5,0
		c0.2,0.1,0.4,0.1,0.5,0.3c0.3,0.2,0.4,0.5,0.5,0.9c0,0.4-0.1,0.7-0.3,1c-0.1,0.2-0.3,0.3-0.6,0.5C46.8,165,46.6,165.1,46.4,165.1
		L46.4,165.1z M48.5,162.4V162c0.4,0,0.7-0.1,1-0.4c0.2-0.2,0.3-0.5,0.3-0.8s-0.1-0.5-0.3-0.7s-0.5-0.3-0.8-0.2
		c-0.3,0-0.5,0.2-0.7,0.4s-0.3,0.5-0.3,0.7l-0.3,0.1l-1.4-1.5l1.3-1.6l0.3,0.3l-1.1,1.3l0.8,0.8l0.1,0.2l0,0c0-0.2,0.1-0.4,0.3-0.6
		c0.3-0.3,0.6-0.5,1-0.5c0.4-0.1,0.7,0.1,1,0.3c0.3,0.3,0.5,0.6,0.5,1s-0.1,0.7-0.4,1.1c-0.2,0.2-0.3,0.3-0.6,0.4
		C49,162.4,48.8,162.4,48.5,162.4L48.5,162.4z M52.2,159c-0.3,0.4-0.7,0.5-1.2,0.5c-0.5-0.1-0.9-0.3-1.5-0.8
		c-0.3-0.2-0.5-0.4-0.6-0.6c-0.1-0.2-0.3-0.4-0.4-0.7c-0.1-0.2-0.1-0.4-0.1-0.7c0-0.2,0.1-0.4,0.3-0.6c0.2-0.3,0.5-0.5,0.8-0.5
		c0.3-0.1,0.6,0,0.9,0.1c0.3,0.1,0.6,0.3,1,0.6c0.3,0.2,0.5,0.4,0.6,0.6c0.1,0.2,0.3,0.4,0.4,0.6c0.1,0.2,0.1,0.4,0.1,0.7
		C52.5,158.6,52.4,158.8,52.2,159L52.2,159z M51.9,158.8c0.2-0.2,0.3-0.4,0.2-0.7c0-0.2-0.1-0.5-0.3-0.7c-0.1-0.2-0.4-0.4-0.7-0.7
		c-0.2-0.2-0.4-0.3-0.6-0.4c-0.2-0.1-0.4-0.2-0.5-0.3c-0.2,0-0.4,0-0.5,0c-0.2,0.1-0.3,0.1-0.4,0.3c-0.5,0.5-0.2,1.2,0.7,2
		c0.4,0.3,0.8,0.6,1.2,0.7C51.3,159.1,51.7,159,51.9,158.8L51.9,158.8z M52.5,156.2l-0.3-0.2l1.1-1.3l0.3,0.3L52.5,156.2z
		 M54.3,154.5l-0.2-0.2l-0.8-3.4l0.3-0.3l2.1,1.7l0.4-0.5l0.3,0.2l-0.4,0.5l0.9,0.7l-0.3,0.3l-0.9-0.8L54.3,154.5z M54.3,153.9
		l1.1-1.3l-1.4-1.2l-0.3-0.3l0,0c0,0.1,0.1,0.3,0.1,0.4L54.3,153.9L54.3,153.9z M58.7,151.3c-0.3,0.4-0.7,0.6-1.2,0.5
		s-0.9-0.3-1.5-0.8c-0.3-0.2-0.5-0.4-0.6-0.6c-0.1-0.2-0.3-0.4-0.4-0.6c-0.1-0.2-0.1-0.5-0.1-0.7s0.1-0.4,0.3-0.6
		c0.2-0.3,0.5-0.4,0.8-0.5c0.3,0,0.6,0,0.9,0.1c0.3,0.1,0.6,0.3,0.9,0.6c0.3,0.2,0.5,0.4,0.6,0.6c0.2,0.2,0.3,0.4,0.4,0.6
		c0.1,0.2,0.1,0.5,0.1,0.7C59,150.8,58.9,151.1,58.7,151.3L58.7,151.3z M58.4,151c0.2-0.2,0.3-0.4,0.2-0.6c0-0.3-0.1-0.5-0.3-0.7
		c-0.1-0.2-0.4-0.4-0.7-0.7c-0.2-0.2-0.4-0.3-0.6-0.4c-0.2-0.1-0.4-0.2-0.5-0.2c-0.2-0.1-0.4-0.1-0.5,0c-0.2,0-0.3,0.1-0.4,0.3
		c-0.5,0.5-0.2,1.2,0.7,2c0.4,0.4,0.8,0.6,1.2,0.7C57.9,151.4,58.1,151.3,58.4,151L58.4,151z M61.1,148.4c-0.3,0.4-0.7,0.5-1.2,0.5
		c-0.5-0.1-0.9-0.3-1.5-0.8c-0.3-0.2-0.5-0.4-0.6-0.6c-0.1-0.2-0.3-0.4-0.4-0.7c-0.1-0.2-0.1-0.4-0.1-0.7c0-0.2,0.1-0.4,0.3-0.6
		c0.2-0.3,0.5-0.4,0.8-0.5c0.3,0,0.6,0,0.9,0.1c0.3,0.1,0.6,0.3,0.9,0.6c0.3,0.2,0.5,0.4,0.6,0.6c0.1,0.2,0.3,0.4,0.4,0.6
		c0.1,0.2,0.1,0.4,0.1,0.7C61.4,148,61.3,148.2,61.1,148.4L61.1,148.4z M60.8,148.1c0.2-0.2,0.3-0.4,0.2-0.7c0-0.2-0.1-0.4-0.3-0.7
		c-0.1-0.2-0.4-0.4-0.7-0.7c-0.2-0.2-0.4-0.3-0.6-0.4c-0.2-0.1-0.4-0.2-0.5-0.3c-0.2,0-0.4,0-0.5,0c-0.2,0.1-0.3,0.2-0.4,0.3
		c-0.5,0.5-0.2,1.2,0.7,2c0.4,0.3,0.8,0.6,1.2,0.7C60.3,148.5,60.6,148.4,60.8,148.1L60.8,148.1z"/>
	<path class="st2" d="M83.6,164.7l-0.2-0.2l-0.8-3.5l0.3-0.3l2.1,1.8l0.4-0.5l0.3,0.2l-0.4,0.5l0.9,0.8l-0.3,0.3L85,163L83.6,164.7z
		 M83.7,164.1l1.1-1.3l-1.4-1.2l-0.3-0.3l0,0c0.1,0.1,0.1,0.3,0.1,0.4L83.7,164.1L83.7,164.1z M88,161.4c-0.3,0.4-0.7,0.6-1.2,0.5
		s-0.9-0.3-1.5-0.8c-0.2-0.2-0.4-0.4-0.6-0.6c-0.2-0.2-0.3-0.4-0.4-0.6c-0.1-0.2-0.1-0.4-0.1-0.7c0-0.2,0.1-0.4,0.3-0.7
		c0.2-0.3,0.5-0.4,0.8-0.5s0.6,0,0.9,0.1s0.6,0.4,0.9,0.6c0.3,0.2,0.5,0.4,0.6,0.6c0.2,0.2,0.3,0.4,0.4,0.6c0.1,0.2,0.1,0.5,0.1,0.7
		C88.3,161,88.2,161.2,88,161.4L88,161.4z M87.7,161.2c0.2-0.2,0.2-0.4,0.2-0.6c0-0.2-0.1-0.5-0.3-0.7c-0.2-0.2-0.4-0.4-0.7-0.7
		c-0.2-0.2-0.4-0.3-0.6-0.4c-0.2-0.1-0.4-0.2-0.5-0.2c-0.2-0.1-0.3-0.1-0.5,0c-0.1,0.1-0.3,0.1-0.4,0.3c-0.5,0.5-0.2,1.2,0.7,2
		c0.5,0.4,0.8,0.6,1.2,0.7C87.2,161.6,87.5,161.5,87.7,161.2L87.7,161.2z M89.4,159.7l-0.3-0.3l0.6-0.7l-2.4-2l-0.2-0.1l0,0
		c0,0.1,0.1,0.2,0.1,0.3l0.1,0.6h-0.4l-0.1-1.4l0.3-0.3l3,2.5l0.6-0.7l0.3,0.2L89.4,159.7z M90.1,156.4l-0.3-0.2l1.1-1.3l0.3,0.3
		L90.1,156.4z M92.5,155.2l-0.1-0.4c0.4,0,0.7-0.1,1-0.4c0.2-0.2,0.3-0.5,0.3-0.8s-0.1-0.5-0.3-0.7c-0.2-0.2-0.5-0.3-0.8-0.2
		c-0.3,0-0.5,0.2-0.7,0.4s-0.3,0.5-0.3,0.7l-0.3,0.1l-1.5-1.5l1.3-1.6l0.3,0.3l-1.1,1.3l0.7,0.8l0.2,0.2l0,0c0-0.2,0.1-0.4,0.3-0.6
		c0.3-0.3,0.6-0.5,1-0.5c0.4-0.1,0.7,0.1,1.1,0.3c0.3,0.3,0.5,0.6,0.5,1s-0.1,0.7-0.4,1.1c-0.2,0.2-0.4,0.3-0.6,0.4
		C93,155.2,92.7,155.2,92.5,155.2L92.5,155.2z M96.1,151.8c-0.3,0.4-0.7,0.5-1.2,0.5c-0.5-0.1-0.9-0.3-1.5-0.8
		c-0.3-0.2-0.5-0.4-0.6-0.6c-0.2-0.2-0.3-0.4-0.4-0.7c-0.1-0.2-0.1-0.4-0.1-0.7c0.1-0.2,0.2-0.4,0.3-0.6c0.2-0.3,0.5-0.5,0.8-0.5
		c0.3-0.1,0.6,0,0.9,0.1s0.6,0.3,1,0.6c0.2,0.2,0.5,0.4,0.6,0.6c0.2,0.2,0.3,0.4,0.4,0.7c0.1,0.2,0.1,0.4,0.1,0.7
		C96.4,151.4,96.3,151.6,96.1,151.8L96.1,151.8z M95.8,151.5c0.2-0.2,0.3-0.4,0.2-0.7c0-0.2-0.1-0.5-0.3-0.7
		c-0.2-0.2-0.4-0.4-0.7-0.7c-0.2-0.2-0.4-0.3-0.6-0.4c-0.2-0.1-0.3-0.2-0.5-0.3c-0.2,0-0.3-0.1-0.5,0s-0.3,0.1-0.5,0.3
		c-0.4,0.5-0.2,1.2,0.7,1.9c0.4,0.4,0.8,0.6,1.2,0.7C95.3,151.9,95.6,151.8,95.8,151.5L95.8,151.5z M98.6,148.9
		c-0.3,0.4-0.7,0.6-1.2,0.5s-0.9-0.3-1.5-0.8c-0.3-0.2-0.5-0.4-0.6-0.6c-0.2-0.2-0.3-0.4-0.4-0.6c-0.1-0.2-0.1-0.4-0.1-0.7
		c0.1-0.2,0.1-0.4,0.3-0.7c0.2-0.3,0.5-0.4,0.8-0.5s0.6,0,0.9,0.1s0.6,0.3,0.9,0.6c0.3,0.2,0.5,0.4,0.6,0.6c0.2,0.2,0.3,0.4,0.4,0.6
		c0.1,0.2,0.1,0.5,0.1,0.7C98.8,148.5,98.7,148.7,98.6,148.9L98.6,148.9z M98.2,148.6c0.2-0.2,0.2-0.4,0.2-0.6
		c0-0.2-0.1-0.5-0.3-0.7c-0.2-0.2-0.4-0.4-0.7-0.7c-0.2-0.2-0.4-0.3-0.6-0.4c-0.2-0.1-0.3-0.2-0.5-0.2c-0.2-0.1-0.3-0.1-0.5,0
		c-0.1,0.1-0.3,0.1-0.4,0.3c-0.4,0.5-0.2,1.2,0.7,2c0.4,0.4,0.8,0.6,1.2,0.7C97.7,149,98,148.9,98.2,148.6L98.2,148.6z"/>
	<path class="st2" d="M121.8,165l-0.1-0.4c0.4,0,0.7-0.1,1-0.4c0.2-0.2,0.3-0.5,0.3-0.8s-0.1-0.5-0.4-0.7c-0.2-0.2-0.5-0.3-0.7-0.2
		c-0.3,0-0.5,0.2-0.7,0.4s-0.3,0.5-0.3,0.8l-0.3,0.1l-1.5-1.5l1.3-1.6l0.3,0.2l-1.1,1.3l0.7,0.8l0.2,0.2l0,0c0-0.2,0.1-0.4,0.3-0.6
		c0.3-0.3,0.6-0.5,1-0.5c0.4-0.1,0.7,0.1,1,0.3c0.3,0.3,0.5,0.6,0.5,1s-0.1,0.8-0.4,1.1c-0.2,0.2-0.4,0.3-0.6,0.4
		C122.3,165,122,165,121.8,165L121.8,165z M125.5,161.6c-0.3,0.4-0.7,0.5-1.2,0.5c-0.5-0.1-0.9-0.3-1.5-0.8
		c-0.3-0.2-0.5-0.4-0.6-0.6c-0.2-0.2-0.3-0.4-0.4-0.6c-0.1-0.2-0.1-0.5-0.1-0.7c0.1-0.2,0.1-0.4,0.3-0.6c0.2-0.3,0.5-0.4,0.8-0.5
		c0.3,0,0.6,0,0.9,0.1s0.6,0.3,0.9,0.6c0.3,0.2,0.5,0.4,0.6,0.6c0.2,0.2,0.3,0.4,0.4,0.6c0.1,0.2,0.1,0.4,0.1,0.7
		C125.7,161.2,125.6,161.4,125.5,161.6L125.5,161.6z M125.1,161.4c0.2-0.2,0.2-0.4,0.2-0.7c0-0.2-0.1-0.4-0.3-0.7
		c-0.2-0.2-0.4-0.4-0.7-0.7c-0.2-0.2-0.4-0.3-0.6-0.4c-0.2-0.1-0.4-0.2-0.5-0.2c-0.2-0.1-0.3-0.1-0.5,0c-0.1,0.1-0.3,0.2-0.4,0.3
		c-0.4,0.5-0.2,1.2,0.7,2c0.4,0.4,0.8,0.6,1.2,0.7C124.6,161.8,124.9,161.7,125.1,161.4L125.1,161.4z M126.8,159.9l-0.3-0.2l0.6-0.7
		l-2.4-2l-0.2-0.2l0,0c0,0.1,0.1,0.1,0.1,0.3v0.7h-0.4l-0.1-1.4l0.3-0.3l3,2.5l0.6-0.7l0.3,0.3L126.8,159.9z M127.5,156.7l-0.3-0.3
		l1.1-1.3l0.3,0.2L127.5,156.7z M128.9,154.4c-0.2-0.2-0.4-0.4-0.6-0.6c-0.2-0.2-0.3-0.5-0.4-0.7c-0.1-0.3-0.1-0.5-0.1-0.8
		s0.2-0.6,0.4-0.8s0.4-0.4,0.7-0.5l0.2,0.3c-0.2,0.1-0.4,0.2-0.5,0.4c-0.3,0.3-0.3,0.7-0.3,1.1c0.1,0.4,0.3,0.8,0.7,1.1l0,0
		c-0.1-0.2,0-0.3,0-0.6c0.1-0.2,0.1-0.4,0.3-0.6c0.3-0.3,0.6-0.5,0.9-0.5c0.4,0,0.7,0.1,1,0.4c0.3,0.3,0.5,0.6,0.5,0.9
		c0,0.4-0.1,0.7-0.3,1c-0.3,0.3-0.7,0.5-1.2,0.5C129.8,155,129.3,154.8,128.9,154.4L128.9,154.4z M131.1,154.3
		c0.2-0.2,0.2-0.4,0.2-0.7c0-0.2-0.2-0.5-0.4-0.7s-0.5-0.3-0.7-0.3c-0.3,0-0.5,0.1-0.7,0.3s-0.3,0.5-0.3,0.7c0,0.3,0.1,0.5,0.2,0.6
		c0.1,0.1,0.3,0.2,0.5,0.2c0.2,0.1,0.4,0.1,0.7,0.1C130.8,154.6,131,154.4,131.1,154.3L131.1,154.3z M133.7,151.8
		c-0.3,0.4-0.7,0.5-1.2,0.5c-0.5-0.1-0.9-0.3-1.5-0.8c-0.3-0.2-0.5-0.4-0.6-0.6c-0.2-0.2-0.3-0.4-0.4-0.7c-0.1-0.2-0.1-0.4-0.1-0.7
		c0.1-0.2,0.1-0.4,0.3-0.6c0.3-0.3,0.5-0.5,0.8-0.5c0.3-0.1,0.6,0,0.9,0.1c0.3,0.1,0.6,0.3,0.9,0.6c0.3,0.2,0.5,0.4,0.6,0.6
		c0.2,0.2,0.3,0.4,0.4,0.7c0.1,0.2,0.1,0.4,0.1,0.7C134,151.4,133.9,151.6,133.7,151.8L133.7,151.8z M133.4,151.6
		c0.2-0.2,0.2-0.4,0.2-0.7c0-0.2-0.1-0.5-0.3-0.7s-0.4-0.4-0.7-0.7c-0.2-0.2-0.4-0.3-0.6-0.4c-0.2-0.1-0.3-0.2-0.5-0.3
		s-0.3-0.1-0.5,0c-0.1,0.1-0.3,0.1-0.4,0.3c-0.4,0.5-0.2,1.2,0.7,1.9c0.4,0.4,0.8,0.6,1.2,0.7C132.8,152,133.1,151.9,133.4,151.6
		L133.4,151.6z M136.1,148.9c-0.3,0.4-0.7,0.6-1.2,0.5s-0.9-0.3-1.5-0.8c-0.3-0.2-0.5-0.4-0.6-0.6c-0.2-0.2-0.3-0.4-0.4-0.6
		c-0.1-0.2-0.1-0.4-0.1-0.7c0.1-0.2,0.1-0.4,0.3-0.7s0.5-0.4,0.8-0.5s0.6,0,0.9,0.1c0.3,0.1,0.6,0.4,0.9,0.6
		c0.3,0.2,0.5,0.4,0.6,0.6c0.2,0.2,0.3,0.4,0.4,0.6c0.1,0.2,0.1,0.5,0.1,0.7C136.4,148.5,136.3,148.7,136.1,148.9L136.1,148.9z
		 M135.8,148.7c0.2-0.2,0.2-0.4,0.2-0.6c0-0.2-0.1-0.5-0.3-0.7s-0.4-0.4-0.7-0.7c-0.2-0.2-0.4-0.3-0.6-0.4c-0.2-0.1-0.4-0.2-0.5-0.2
		c-0.2-0.1-0.3-0.1-0.5,0c-0.1,0.1-0.3,0.1-0.4,0.3c-0.4,0.5-0.2,1.2,0.7,2c0.4,0.4,0.8,0.6,1.2,0.7
		C135.2,149.1,135.5,149,135.8,148.7L135.8,148.7z"/>
	<path class="st2" d="M159,164.1c-0.2-0.2-0.4-0.4-0.6-0.6c-0.1-0.2-0.3-0.5-0.4-0.7c-0.1-0.3-0.1-0.5-0.1-0.8
		c0.1-0.3,0.2-0.6,0.4-0.8s0.4-0.4,0.6-0.5l0.2,0.4c-0.2,0.1-0.4,0.2-0.5,0.4c-0.3,0.3-0.3,0.7-0.2,1.1c0.1,0.4,0.3,0.8,0.7,1.1l0,0
		c-0.1-0.2-0.1-0.4,0-0.6c0.1-0.2,0.2-0.4,0.3-0.6c0.3-0.3,0.5-0.5,0.9-0.5s0.7,0.1,1,0.4c0.3,0.3,0.5,0.6,0.5,0.9
		c0.1,0.4-0.1,0.7-0.3,1c-0.3,0.3-0.7,0.5-1.1,0.5C159.9,164.7,159.5,164.5,159,164.1L159,164.1z M161.3,163.9
		c0.2-0.2,0.2-0.4,0.2-0.7s-0.2-0.5-0.4-0.7c-0.3-0.2-0.5-0.3-0.7-0.3c-0.3,0-0.5,0.1-0.7,0.4c-0.2,0.2-0.3,0.5-0.3,0.7
		s0.1,0.4,0.2,0.6c0.1,0.1,0.3,0.2,0.5,0.2c0.2,0.1,0.4,0.1,0.6,0C160.9,164.2,161.1,164.1,161.3,163.9L161.3,163.9z M163.8,161.5
		c-0.3,0.4-0.7,0.6-1.2,0.5s-1-0.3-1.5-0.8c-0.2-0.2-0.5-0.4-0.6-0.6c-0.2-0.2-0.3-0.4-0.4-0.6c-0.1-0.2-0.1-0.4-0.1-0.7
		c0-0.2,0.1-0.5,0.3-0.7c0.2-0.3,0.5-0.4,0.8-0.5s0.6,0,0.9,0.1c0.3,0.1,0.6,0.4,0.9,0.6c0.3,0.2,0.5,0.4,0.6,0.6
		c0.2,0.2,0.3,0.4,0.4,0.6c0.1,0.2,0.1,0.5,0.1,0.7C164.1,161,164,161.3,163.8,161.5L163.8,161.5z M163.5,161.2
		c0.2-0.2,0.2-0.4,0.2-0.6c0-0.2-0.1-0.5-0.3-0.7c-0.1-0.2-0.4-0.4-0.7-0.7c-0.2-0.2-0.4-0.3-0.6-0.4c-0.2-0.1-0.4-0.2-0.5-0.2
		c-0.2-0.1-0.3-0.1-0.5,0c-0.2,0-0.3,0.1-0.4,0.3c-0.5,0.5-0.2,1.2,0.7,2c0.5,0.4,0.8,0.6,1.2,0.7
		C163,161.6,163.3,161.5,163.5,161.2L163.5,161.2z M165.2,159.7l-0.3-0.3l0.6-0.7l-2.4-2l-0.2-0.1l0,0c0,0.1,0.1,0.2,0.1,0.3
		l0.1,0.7h-0.4l-0.1-1.4l0.3-0.3l3,2.5l0.6-0.7l0.3,0.2L165.2,159.7z M165.9,156.5l-0.3-0.2l1.1-1.3l0.3,0.3L165.9,156.5z
		 M168.7,155.5l-1.6-3.6l-0.1-0.4l0,0c-0.1,0.1-0.1,0.1-0.2,0.3l-1.3,1.5l-0.3-0.3l1.8-2.1l0.2,0.2l1.8,4.1L168.7,155.5z
		 M171.7,152.2c-0.3,0.4-0.7,0.5-1.2,0.5c-0.5-0.1-0.9-0.3-1.5-0.8c-0.2-0.2-0.4-0.4-0.6-0.6c-0.2-0.2-0.3-0.4-0.4-0.7
		c-0.1-0.2-0.1-0.4-0.1-0.7c0-0.2,0.1-0.4,0.3-0.6c0.2-0.3,0.5-0.5,0.8-0.5c0.3-0.1,0.6,0,0.9,0.1c0.3,0.1,0.6,0.3,0.9,0.6
		c0.3,0.2,0.5,0.4,0.6,0.6c0.2,0.2,0.3,0.4,0.4,0.6c0.1,0.2,0.1,0.4,0.1,0.7C171.9,151.7,171.9,151.9,171.7,152.2L171.7,152.2z
		 M171.4,151.9c0.2-0.2,0.2-0.4,0.2-0.7c0-0.2-0.1-0.5-0.3-0.7s-0.4-0.4-0.7-0.7c-0.2-0.2-0.4-0.3-0.6-0.4c-0.2-0.1-0.4-0.2-0.5-0.3
		c-0.2,0-0.3,0-0.5,0c-0.2,0.1-0.3,0.1-0.4,0.3c-0.5,0.5-0.2,1.2,0.7,2c0.5,0.3,0.8,0.6,1.2,0.7
		C170.8,152.3,171.1,152.2,171.4,151.9L171.4,151.9z M174.1,149.3c-0.3,0.4-0.7,0.5-1.2,0.5c-0.5-0.1-1-0.3-1.5-0.8
		c-0.2-0.2-0.5-0.4-0.6-0.6c-0.2-0.2-0.3-0.4-0.4-0.6c-0.1-0.2-0.1-0.4-0.1-0.7c0-0.2,0.1-0.4,0.3-0.7s0.5-0.4,0.8-0.5
		s0.6,0,0.9,0.1c0.3,0.1,0.6,0.3,0.9,0.6c0.3,0.2,0.5,0.4,0.6,0.6c0.2,0.2,0.3,0.4,0.4,0.7c0.1,0.2,0.1,0.4,0.1,0.7
		C174.4,148.8,174.3,149,174.1,149.3L174.1,149.3z M173.8,149c0.2-0.2,0.2-0.4,0.2-0.7c0-0.2-0.1-0.5-0.3-0.7
		c-0.1-0.2-0.4-0.4-0.7-0.7c-0.2-0.2-0.4-0.3-0.6-0.4c-0.2-0.1-0.4-0.2-0.5-0.3c-0.2-0.1-0.3-0.1-0.5,0s-0.3,0.1-0.4,0.3
		c-0.5,0.5-0.2,1.2,0.7,1.9c0.5,0.4,0.8,0.6,1.2,0.7C173.3,149.4,173.5,149.3,173.8,149L173.8,149z"/>
	<path class="st2" d="M199.5,165.2l-1.6-3.6l-0.2-0.4l0,0c-0.1,0.1-0.1,0.1-0.2,0.2l-1.3,1.5l-0.3-0.2l1.8-2.1l0.2,0.2l1.8,4.1
		L199.5,165.2z M202.4,161.8c-0.3,0.4-0.7,0.6-1.2,0.5s-0.9-0.3-1.5-0.8c-0.3-0.2-0.5-0.4-0.6-0.6c-0.2-0.2-0.3-0.4-0.4-0.6
		c-0.1-0.2-0.1-0.4-0.1-0.7c0.1-0.2,0.1-0.4,0.3-0.7s0.5-0.4,0.8-0.5s0.6,0,0.9,0.1c0.3,0.1,0.6,0.3,0.9,0.6
		c0.3,0.2,0.5,0.4,0.6,0.6c0.2,0.2,0.3,0.4,0.4,0.7c0.1,0.2,0.1,0.4,0.1,0.7C202.7,161.4,202.6,161.6,202.4,161.8L202.4,161.8z
		 M202.1,161.5c0.2-0.2,0.2-0.4,0.2-0.7c0-0.2-0.1-0.5-0.3-0.7s-0.4-0.4-0.7-0.7c-0.2-0.2-0.4-0.3-0.6-0.4c-0.2-0.1-0.4-0.2-0.5-0.2
		c-0.2-0.1-0.3-0.1-0.5,0c-0.1,0.1-0.3,0.1-0.4,0.3c-0.4,0.5-0.2,1.2,0.7,1.9c0.4,0.4,0.8,0.6,1.2,0.7
		C201.6,161.9,201.8,161.8,202.1,161.5L202.1,161.5z M203.8,160l-0.3-0.3l0.6-0.7l-2.4-2l-0.2-0.1l0,0c0,0.1,0.1,0.2,0.1,0.3v0.6
		h-0.4l-0.1-1.4l0.3-0.3l3,2.5l0.6-0.7l0.3,0.2L203.8,160z M204.5,156.8l-0.3-0.3l1.1-1.3l0.3,0.3L204.5,156.8z M206.4,155.1
		c-0.1-0.1-0.2-0.2-0.3-0.4c-0.1-0.1-0.1-0.3-0.1-0.4c0-0.1,0-0.3,0-0.3c0-0.1,0-0.1,0-0.2c-0.4,0.1-0.7,0.1-1-0.1
		c-0.2-0.2-0.3-0.5-0.4-0.8c0-0.3,0.1-0.6,0.4-0.9c0.3-0.3,0.5-0.5,0.9-0.5c0.3,0,0.6,0,0.9,0.3c0.1,0.1,0.2,0.3,0.3,0.4
		c0.1,0.2,0.1,0.3,0.2,0.4c0,0.1,0,0.2,0.1,0.3c0.4-0.1,0.8-0.1,1.1,0.1c0.3,0.2,0.4,0.5,0.4,0.9s-0.1,0.7-0.4,1
		c-0.3,0.3-0.6,0.5-0.9,0.5C207,155.4,206.6,155.3,206.4,155.1L206.4,155.1z M206.8,152.9c0-0.5-0.2-0.8-0.4-1
		c-0.2-0.1-0.4-0.2-0.6-0.2c-0.2,0.1-0.4,0.2-0.6,0.4c-0.1,0.2-0.2,0.4-0.2,0.6c0,0.2,0.1,0.4,0.2,0.5c0.1,0.1,0.1,0.1,0.2,0.1
		c0.1,0,0.2,0,0.2,0c0.1,0,0.2,0,0.3-0.1s0.2-0.1,0.3-0.1s0.2-0.1,0.3-0.1C206.6,153,206.7,153,206.8,152.9L206.8,152.9z
		 M206.6,154.7c0.2,0.2,0.4,0.3,0.7,0.2s0.5-0.2,0.6-0.4c0.2-0.2,0.3-0.4,0.3-0.7s-0.1-0.5-0.3-0.6c-0.1-0.1-0.2-0.1-0.3-0.1
		s-0.2,0-0.3,0c-0.1,0.1-0.3,0.1-0.3,0.1c-0.1,0.1-0.2,0.1-0.4,0.2c-0.2,0.1-0.3,0.1-0.4,0.2C206.2,154.1,206.3,154.4,206.6,154.7
		L206.6,154.7z M210.7,151.9c-0.3,0.4-0.7,0.6-1.2,0.5s-0.9-0.3-1.5-0.8c-0.3-0.2-0.5-0.4-0.6-0.6c-0.2-0.2-0.3-0.4-0.4-0.6
		c-0.1-0.2-0.1-0.5-0.1-0.7s0.1-0.5,0.3-0.7c0.2-0.3,0.5-0.4,0.8-0.5c0.3,0,0.6,0,0.9,0.1c0.3,0.1,0.6,0.3,0.9,0.6
		c0.3,0.2,0.5,0.4,0.6,0.6c0.2,0.2,0.3,0.4,0.4,0.6c0.1,0.2,0.1,0.5,0.1,0.7C210.9,151.5,210.8,151.7,210.7,151.9L210.7,151.9z
		 M210.4,151.7c0.2-0.2,0.2-0.4,0.2-0.6c0-0.2-0.1-0.5-0.3-0.7s-0.4-0.5-0.7-0.7c-0.2-0.2-0.4-0.3-0.6-0.4c-0.2-0.1-0.4-0.2-0.5-0.2
		c-0.2-0.1-0.3-0.1-0.5,0c-0.1,0-0.3,0.1-0.4,0.3c-0.4,0.5-0.2,1.2,0.7,2c0.5,0.4,0.9,0.6,1.2,0.7
		C209.8,152.1,210.1,152,210.4,151.7L210.4,151.7z M213.1,149c-0.3,0.4-0.7,0.6-1.2,0.5s-0.9-0.3-1.5-0.8c-0.2-0.2-0.4-0.4-0.6-0.6
		c-0.2-0.2-0.3-0.4-0.4-0.6c-0.1-0.2-0.1-0.5-0.1-0.7s0.1-0.4,0.3-0.6c0.2-0.3,0.5-0.4,0.8-0.5c0.3,0,0.6,0,0.9,0.1
		c0.3,0.1,0.6,0.3,0.9,0.6c0.3,0.2,0.5,0.4,0.6,0.6c0.2,0.2,0.3,0.4,0.4,0.6c0.1,0.2,0.1,0.4,0.1,0.7
		C213.4,148.6,213.3,148.8,213.1,149L213.1,149z M212.8,148.8c0.2-0.2,0.2-0.4,0.2-0.7c0-0.2-0.1-0.4-0.3-0.7
		c-0.2-0.2-0.4-0.4-0.7-0.7c-0.2-0.2-0.4-0.3-0.6-0.4c-0.2-0.1-0.4-0.2-0.5-0.2c-0.2-0.1-0.3-0.1-0.5,0c-0.1,0.1-0.3,0.2-0.4,0.3
		c-0.5,0.5-0.2,1.2,0.7,2c0.5,0.4,0.8,0.6,1.2,0.7C212.2,149.2,212.5,149.1,212.8,148.8L212.8,148.8z"/>
	<path class="st2" d="M237.3,165.2l-0.2-0.4c0.2-0.1,0.4-0.2,0.5-0.4c0.2-0.2,0.3-0.5,0.3-0.7c0-0.3-0.1-0.5-0.2-0.8
		c-0.1-0.2-0.3-0.5-0.5-0.7l0,0c0.1,0.2,0,0.4,0,0.6c-0.1,0.2-0.1,0.4-0.3,0.6c-0.3,0.3-0.6,0.5-0.9,0.5c-0.4,0-0.7-0.1-1-0.4
		c-0.3-0.3-0.5-0.6-0.5-1s0.1-0.7,0.3-1c0.3-0.3,0.7-0.5,1.2-0.5s0.9,0.2,1.4,0.6c0.2,0.2,0.4,0.4,0.6,0.6c0.2,0.2,0.3,0.5,0.4,0.8
		c0.1,0.3,0.1,0.5,0.1,0.8c-0.1,0.3-0.2,0.5-0.4,0.8C237.7,164.9,237.5,165,237.3,165.2L237.3,165.2z M236.6,163.1
		c0.2-0.2,0.3-0.5,0.3-0.7c0-0.3,0-0.4-0.2-0.5c-0.2-0.2-0.5-0.3-0.9-0.3c-0.3,0-0.6,0.1-0.8,0.3s-0.3,0.5-0.2,0.7
		c0,0.3,0.2,0.5,0.4,0.7s0.5,0.3,0.7,0.3C236.2,163.4,236.4,163.3,236.6,163.1L236.6,163.1z M240.6,161.5c-0.3,0.4-0.7,0.6-1.2,0.5
		s-1-0.3-1.5-0.8c-0.2-0.2-0.5-0.4-0.6-0.6c-0.2-0.2-0.3-0.4-0.4-0.6c-0.1-0.2-0.1-0.4-0.1-0.7c0-0.2,0.1-0.5,0.3-0.7
		c0.2-0.3,0.5-0.4,0.8-0.5s0.6,0,0.9,0.1c0.3,0.1,0.6,0.4,0.9,0.6c0.3,0.2,0.5,0.4,0.6,0.6c0.2,0.2,0.3,0.4,0.4,0.6
		c0.1,0.2,0.1,0.5,0.1,0.7C240.9,161,240.8,161.3,240.6,161.5L240.6,161.5z M240.3,161.2c0.2-0.2,0.2-0.4,0.2-0.6
		c0-0.2-0.1-0.5-0.3-0.7s-0.4-0.4-0.7-0.7c-0.2-0.2-0.4-0.3-0.6-0.4c-0.2-0.1-0.4-0.2-0.5-0.2c-0.2-0.1-0.3-0.1-0.5,0
		c-0.2,0-0.3,0.1-0.4,0.3c-0.5,0.5-0.2,1.2,0.7,2c0.5,0.4,0.8,0.6,1.2,0.7C239.7,161.6,240,161.5,240.3,161.2L240.3,161.2z
		 M242,159.7l-0.3-0.3l0.6-0.7l-2.4-2l-0.2-0.1l0,0c0,0.1,0.1,0.2,0.1,0.3l0.1,0.7h-0.4l-0.1-1.4l0.3-0.3l3,2.5l0.6-0.7l0.3,0.2
		L242,159.7z M242.6,156.5l-0.3-0.2l1.1-1.3l0.3,0.3L242.6,156.5z M245.4,155.7l-0.3-0.3l0.6-0.7l-2.4-2l-0.2-0.1l0,0
		c0,0.1,0.1,0.2,0.1,0.3l0.1,0.6h-0.4l-0.1-1.3l0.2-0.3l3,2.5l0.6-0.7l0.3,0.2L245.4,155.7z M248.3,152.3c-0.3,0.4-0.7,0.6-1.2,0.5
		s-0.9-0.3-1.5-0.8c-0.2-0.2-0.5-0.4-0.6-0.6c-0.2-0.2-0.3-0.4-0.4-0.6c-0.1-0.2-0.1-0.5-0.1-0.7s0.1-0.4,0.3-0.6
		c0.2-0.3,0.5-0.4,0.8-0.5c0.3,0,0.6,0,0.9,0.1c0.3,0.1,0.6,0.3,0.9,0.6c0.3,0.2,0.5,0.4,0.6,0.6c0.2,0.2,0.3,0.4,0.4,0.6
		c0.1,0.2,0.1,0.4,0.1,0.7C248.5,151.9,248.4,152.1,248.3,152.3L248.3,152.3z M248,152.1c0.1-0.2,0.2-0.4,0.2-0.7
		c0-0.2-0.1-0.4-0.3-0.7c-0.1-0.2-0.4-0.4-0.7-0.7c-0.2-0.2-0.4-0.3-0.6-0.4c-0.2-0.1-0.4-0.2-0.5-0.2c-0.2-0.1-0.4-0.1-0.5,0
		c-0.2,0.1-0.3,0.2-0.4,0.3c-0.5,0.5-0.2,1.2,0.7,2c0.4,0.4,0.8,0.6,1.2,0.7C247.4,152.5,247.7,152.4,248,152.1L248,152.1z
		 M250.7,149.4c-0.3,0.4-0.7,0.5-1.2,0.5c-0.5-0.1-0.9-0.3-1.5-0.8c-0.3-0.2-0.5-0.4-0.6-0.6c-0.1-0.2-0.3-0.4-0.4-0.7
		c-0.1-0.2-0.1-0.4-0.1-0.7c0-0.2,0.1-0.4,0.3-0.6c0.2-0.3,0.5-0.5,0.8-0.5c0.3-0.1,0.6,0,0.9,0.1c0.3,0.1,0.6,0.3,0.9,0.6
		c0.3,0.2,0.5,0.4,0.6,0.6c0.1,0.2,0.3,0.4,0.4,0.6c0.1,0.2,0.1,0.4,0.1,0.7C251,149,250.8,149.2,250.7,149.4L250.7,149.4z
		 M250.4,149.2c0.2-0.2,0.3-0.4,0.2-0.7c0-0.2-0.1-0.5-0.3-0.7c-0.1-0.2-0.4-0.4-0.7-0.7c-0.2-0.2-0.4-0.3-0.6-0.4
		c-0.2-0.1-0.4-0.2-0.5-0.3c-0.2,0-0.4,0-0.5,0c-0.2,0.1-0.3,0.1-0.4,0.3c-0.5,0.5-0.2,1.2,0.7,2c0.4,0.3,0.8,0.6,1.2,0.7
		C249.9,149.6,250.1,149.5,250.4,149.2L250.4,149.2z M253.1,146.6c-0.3,0.4-0.7,0.5-1.2,0.5c-0.5-0.1-0.9-0.3-1.5-0.8
		c-0.3-0.2-0.5-0.4-0.6-0.6c-0.1-0.2-0.3-0.4-0.4-0.6c-0.1-0.2-0.1-0.4-0.1-0.7c0-0.2,0.1-0.4,0.3-0.7s0.5-0.4,0.8-0.5
		s0.6,0,0.9,0.1c0.3,0.1,0.6,0.3,1,0.6c0.3,0.2,0.5,0.4,0.6,0.6c0.1,0.2,0.3,0.4,0.4,0.7c0.1,0.2,0.1,0.4,0.1,0.7
		C253.4,146.1,253.3,146.3,253.1,146.6L253.1,146.6z M252.8,146.3c0.2-0.2,0.3-0.4,0.2-0.7c0-0.2-0.1-0.5-0.3-0.7
		c-0.1-0.2-0.4-0.4-0.7-0.7c-0.2-0.2-0.4-0.3-0.6-0.4c-0.2-0.1-0.3-0.2-0.5-0.3s-0.4-0.1-0.5,0c-0.2,0.1-0.3,0.1-0.4,0.3
		c-0.5,0.5-0.2,1.2,0.7,1.9c0.4,0.4,0.8,0.6,1.2,0.7C252.2,146.7,252.6,146.6,252.8,146.3L252.8,146.3z"/>
	<path class="st2" d="M15.5,141.7c-0.5,0-0.9-0.2-1.1-0.6c-0.2-0.4-0.3-0.9-0.3-1.6c0-0.3,0-0.6,0.1-0.9c0.1-0.3,0.1-0.5,0.3-0.7
		c0.1-0.2,0.3-0.4,0.5-0.5s0.4-0.2,0.7-0.2c0.4,0,0.7,0.1,0.9,0.3s0.4,0.5,0.5,0.8s0.1,0.7,0.1,1.1c0,0.3,0,0.6-0.1,0.9
		c-0.1,0.3-0.1,0.5-0.3,0.7c-0.1,0.2-0.3,0.4-0.5,0.5S15.8,141.7,15.5,141.7L15.5,141.7z M15.5,141.3c0.3,0,0.5-0.1,0.7-0.2
		c0.1-0.2,0.3-0.4,0.3-0.7c0.1-0.3,0.1-0.6,0.1-0.9c0-0.3,0-0.5-0.1-0.7c0-0.2-0.1-0.4-0.2-0.6c-0.1-0.2-0.2-0.3-0.3-0.4
		c-0.1-0.1-0.3-0.1-0.5-0.1c-0.7,0-1,0.6-1,1.8c0,0.6,0.1,1,0.2,1.3C14.9,141.1,15.2,141.3,15.5,141.3L15.5,141.3z M24.3,141.7
		c-0.5,0-0.9-0.2-1.1-0.6c-0.2-0.4-0.3-0.9-0.3-1.6c0-0.3,0-0.6,0.1-0.9c0.1-0.3,0.1-0.5,0.3-0.7c0.1-0.2,0.3-0.4,0.5-0.5
		s0.4-0.2,0.7-0.2c0.4,0,0.7,0.1,0.9,0.3c0.2,0.2,0.4,0.5,0.5,0.8s0.1,0.7,0.1,1.1c0,0.3,0,0.6-0.1,0.9c-0.1,0.3-0.1,0.5-0.3,0.7
		c-0.1,0.2-0.3,0.4-0.5,0.5C24.8,141.6,24.6,141.7,24.3,141.7L24.3,141.7z M24.3,141.3c0.3,0,0.5-0.1,0.7-0.2
		c0.1-0.2,0.3-0.4,0.3-0.7c0.1-0.3,0.1-0.6,0.1-0.9c0-0.3,0-0.5-0.1-0.7c0-0.2-0.1-0.4-0.1-0.6c-0.1-0.2-0.2-0.3-0.3-0.4
		c-0.1-0.1-0.3-0.1-0.5-0.1c-0.7,0-1,0.6-1,1.8c0,0.6,0.1,1,0.2,1.3C23.7,141.1,23.9,141.3,24.3,141.3L24.3,141.3z M17.7,142.2
		l0.3-1.1h0.5l-0.5,1.1H17.7z M19.4,141.1l0.3-0.3c0.2,0.3,0.5,0.5,1,0.5c0.3,0,0.5-0.1,0.7-0.3s0.3-0.4,0.3-0.7s-0.1-0.5-0.3-0.7
		c-0.2-0.2-0.5-0.3-0.8-0.3s-0.5,0.1-0.8,0.3l-0.3-0.1l0.2-2.1h2.1v0.4h-1.7l-0.1,1.1v0.3l0,0c0.2-0.1,0.4-0.2,0.7-0.2
		c0.4,0,0.8,0.1,1.1,0.4c0.3,0.3,0.4,0.6,0.4,1s-0.1,0.7-0.5,1c-0.3,0.3-0.6,0.4-1.1,0.4c-0.2,0-0.5-0.1-0.7-0.1
		C19.7,141.4,19.5,141.3,19.4,141.1L19.4,141.1z"/>
	<path class="st2" d="M14.1,118.8v-0.4H15v-3.1v-0.2l0,0c0,0.1-0.1,0.1-0.2,0.3l-0.5,0.4l-0.3-0.3l1-1h0.4v3.9h0.9v0.4
		C16.3,118.8,14.1,118.8,14.1,118.8z M16.9,119.4l0.3-1.1h0.5l-0.5,1.1H16.9z M20.1,118.8c-0.5,0-0.9-0.2-1.1-0.6s-0.3-0.9-0.3-1.6
		c0-0.3,0-0.6,0.1-0.9s0.1-0.5,0.3-0.7c0.1-0.2,0.3-0.4,0.5-0.5s0.4-0.1,0.7-0.1c0.4,0,0.7,0.1,0.9,0.3c0.2,0.2,0.4,0.5,0.5,0.8
		s0.1,0.7,0.1,1.1c0,0.3,0,0.6-0.1,0.9s-0.1,0.5-0.3,0.7c-0.1,0.2-0.3,0.4-0.5,0.5C20.6,118.8,20.4,118.8,20.1,118.8L20.1,118.8z
		 M20.1,118.4c0.3,0,0.5-0.1,0.7-0.2c0.1-0.2,0.3-0.4,0.3-0.7c0.1-0.3,0.1-0.6,0.1-0.9s0-0.5-0.1-0.7c0-0.2-0.1-0.4-0.1-0.6
		c-0.1-0.2-0.2-0.3-0.3-0.4c-0.1-0.1-0.3-0.1-0.5-0.1c-0.7,0-1,0.6-1,1.8c0,0.6,0.1,1,0.2,1.3C19.4,118.3,19.7,118.4,20.1,118.4
		L20.1,118.4z M23.9,118.8c-0.5,0-0.9-0.2-1.1-0.6s-0.3-0.9-0.3-1.6c0-0.3,0-0.6,0.1-0.9s0.1-0.5,0.3-0.7c0.1-0.2,0.3-0.4,0.5-0.5
		s0.4-0.1,0.7-0.1c0.3,0,0.6,0.1,0.9,0.3c0.2,0.2,0.4,0.5,0.5,0.8s0.1,0.7,0.1,1.1c0,0.3,0,0.6-0.1,0.9s-0.1,0.5-0.3,0.7
		c-0.1,0.2-0.3,0.4-0.5,0.5C24.4,118.8,24.1,118.8,23.9,118.8L23.9,118.8z M23.9,118.4c0.3,0,0.5-0.1,0.6-0.2
		c0.1-0.2,0.3-0.4,0.3-0.7c0.1-0.3,0.1-0.6,0.1-0.9s0-0.5-0.1-0.7c0-0.2-0.1-0.4-0.1-0.6c-0.1-0.2-0.2-0.3-0.3-0.4
		c-0.1-0.1-0.3-0.1-0.5-0.1c-0.7,0-1.1,0.6-1.1,1.8c0,0.6,0.1,1,0.2,1.3C23.2,118.3,23.5,118.4,23.9,118.4L23.9,118.4z"/>
	<path class="st2" d="M14.1,95.8v-0.4H15v-3.1V92l0,0c0,0.1-0.1,0.1-0.2,0.3l-0.5,0.5L14,92.5l1-1h0.4v3.9h0.9v0.4H14.1z M16.9,96.4
		l0.3-1.1h0.5l-0.5,1.1H16.9z M18.5,95.3l0.3-0.3c0.2,0.3,0.5,0.5,1,0.5c0.3,0,0.5-0.1,0.7-0.3c0.2-0.2,0.3-0.4,0.3-0.7
		c0-0.3-0.1-0.5-0.3-0.7c-0.2-0.2-0.5-0.3-0.8-0.3s-0.5,0.1-0.8,0.2l-0.3-0.1l0.2-2.1H21v0.4h-1.7L19.2,93l-0.1,0.2l0,0
		c0.2-0.1,0.4-0.2,0.7-0.2c0.4,0,0.8,0.1,1.1,0.4c0.3,0.3,0.4,0.6,0.4,1s-0.1,0.7-0.4,1s-0.6,0.4-1.1,0.4c-0.3,0-0.5-0.1-0.7-0.2
		C18.8,95.6,18.7,95.4,18.5,95.3L18.5,95.3z M23.5,95.9c-0.5,0-0.9-0.2-1.1-0.6S22,94.4,22,93.7c0-0.3,0-0.6,0.1-0.9
		s0.1-0.5,0.3-0.7c0.1-0.2,0.3-0.4,0.5-0.5s0.4-0.2,0.7-0.2c0.4,0,0.7,0.1,0.9,0.3c0.2,0.2,0.4,0.5,0.5,0.8s0.1,0.7,0.1,1.1
		c0,0.3,0,0.6-0.1,0.9s-0.1,0.5-0.3,0.7c-0.1,0.2-0.3,0.4-0.5,0.5C24,95.8,23.8,95.9,23.5,95.9L23.5,95.9z M23.5,95.5
		c0.3,0,0.5-0.1,0.6-0.3c0.2-0.2,0.3-0.4,0.3-0.6c0.1-0.3,0.1-0.6,0.1-0.9s0-0.5-0.1-0.7c0-0.2-0.1-0.4-0.2-0.6
		c0-0.2-0.1-0.4-0.2-0.4c-0.1-0.1-0.3-0.1-0.5-0.1c-0.7,0-1,0.6-1,1.8c0,0.6,0.1,1,0.2,1.3C22.8,95.3,23.1,95.5,23.5,95.5L23.5,95.5
		z"/>
	<path class="st2" d="M14.1,72.7c0-0.1,0-0.2,0-0.3c0-0.2,0.1-0.4,0.1-0.6c0.1-0.2,0.2-0.3,0.3-0.5c0.1-0.1,0.3-0.3,0.4-0.4
		c0.2-0.1,0.3-0.2,0.5-0.3c0.2-0.1,0.3-0.2,0.4-0.3c0.1-0.1,0.2-0.2,0.3-0.4c0.1-0.1,0.1-0.3,0.1-0.4c0-0.3-0.1-0.5-0.2-0.6
		c-0.2-0.2-0.4-0.2-0.7-0.2c-0.2,0-0.4,0.1-0.5,0.1c-0.2,0.1-0.3,0.3-0.4,0.4L14.1,69c0.1-0.2,0.3-0.4,0.5-0.6
		c0.2-0.1,0.5-0.2,0.8-0.2c0.4,0,0.7,0.1,0.9,0.3c0.3,0.2,0.4,0.5,0.4,0.9c0,0.2-0.1,0.4-0.1,0.5c-0.1,0.2-0.2,0.3-0.3,0.4
		c-0.1,0.1-0.3,0.3-0.4,0.4c-0.2,0.1-0.3,0.2-0.5,0.3c-0.2,0.1-0.3,0.2-0.4,0.3c-0.1,0.1-0.2,0.2-0.3,0.4c-0.1,0.1-0.1,0.3-0.1,0.4
		h2.3v0.4h-2.8V72.7z M17.4,73.2l0.3-1.1h0.5l-0.5,1.1H17.4z M20.6,72.7c-0.5,0-0.9-0.2-1.1-0.6s-0.3-0.9-0.3-1.6
		c0-0.3,0-0.6,0.1-0.9s0.1-0.5,0.3-0.7c0.1-0.2,0.3-0.4,0.5-0.5s0.4-0.2,0.7-0.2c0.3,0,0.6,0.1,0.9,0.3c0.2,0.2,0.4,0.5,0.5,0.8
		s0.1,0.7,0.1,1.1c0,0.3,0,0.6-0.1,0.9s-0.1,0.5-0.3,0.7c-0.1,0.2-0.3,0.4-0.5,0.5C21.1,72.7,20.9,72.7,20.6,72.7L20.6,72.7z
		 M20.6,72.3c0.3,0,0.5-0.1,0.6-0.2c0.1-0.2,0.3-0.4,0.3-0.7c0.1-0.3,0.1-0.6,0.1-0.9s0-0.5-0.1-0.7c0-0.2-0.1-0.4-0.1-0.6
		c-0.1-0.2-0.2-0.3-0.3-0.4c-0.1-0.1-0.3-0.1-0.5-0.1c-0.7,0-1.1,0.6-1.1,1.8c0,0.6,0.1,1,0.2,1.3C20,72.2,20.2,72.3,20.6,72.3
		L20.6,72.3z M24.4,72.7c-0.5,0-0.9-0.2-1.1-0.6S23,71.2,23,70.5c0-0.3,0-0.6,0.1-0.9s0.1-0.5,0.3-0.7c0.1-0.2,0.3-0.4,0.5-0.5
		s0.4-0.2,0.7-0.2c0.3,0,0.6,0.1,0.9,0.3c0.2,0.2,0.4,0.5,0.5,0.8s0.1,0.7,0.1,1.1c0,0.3,0,0.6-0.1,0.9s-0.1,0.5-0.3,0.7
		c-0.1,0.2-0.3,0.4-0.5,0.5C24.9,72.7,24.7,72.7,24.4,72.7L24.4,72.7z M24.4,72.3c0.3,0,0.5-0.1,0.6-0.2c0.1-0.2,0.3-0.4,0.3-0.7
		c0.1-0.3,0.1-0.6,0.1-0.9s0-0.5,0-0.7c-0.1-0.2-0.1-0.4-0.2-0.6s-0.2-0.3-0.3-0.4c-0.1-0.1-0.3-0.1-0.5-0.1c-0.7,0-1.1,0.6-1.1,1.8
		c0,0.6,0.1,1,0.2,1.3C23.8,72.2,24,72.3,24.4,72.3L24.4,72.3z"/>
	<path class="st2" d="M14.1,50.1c0-0.1,0-0.2,0-0.3c0-0.2,0.1-0.4,0.1-0.6c0.1-0.2,0.2-0.3,0.3-0.5c0.1-0.1,0.3-0.3,0.4-0.4
		c0.2-0.1,0.3-0.2,0.5-0.3s0.3-0.2,0.4-0.3c0.1-0.1,0.2-0.2,0.3-0.4c0.1-0.1,0.1-0.3,0.1-0.5s-0.1-0.4-0.2-0.6
		c-0.2-0.1-0.4-0.2-0.7-0.2c-0.2,0-0.4,0.1-0.5,0.2c-0.2,0.1-0.3,0.3-0.4,0.4l-0.3-0.2c0.1-0.2,0.3-0.4,0.5-0.5s0.5-0.2,0.8-0.2
		c0.4,0,0.7,0.1,0.9,0.3c0.3,0.2,0.4,0.5,0.4,0.9c0,0.2-0.1,0.4-0.1,0.6c-0.1,0.1-0.2,0.3-0.3,0.4c-0.1,0.1-0.3,0.2-0.4,0.3
		c-0.2,0.1-0.3,0.2-0.5,0.3s-0.3,0.2-0.4,0.3c-0.1,0.1-0.2,0.2-0.3,0.4c-0.1,0.1-0.1,0.3-0.1,0.4h2.3V50L14.1,50.1L14.1,50.1z
		 M17.4,50.7l0.3-1.1h0.5l-0.5,1.1H17.4z M19.1,49.6l0.3-0.3c0.2,0.3,0.5,0.5,1,0.5c0.3,0,0.5-0.1,0.7-0.3s0.3-0.5,0.3-0.7
		c0-0.3-0.1-0.5-0.3-0.7c-0.2-0.2-0.5-0.3-0.8-0.3s-0.5,0.1-0.8,0.2l-0.3-0.1l0.2-2.1h2.1v0.4h-1.7l-0.1,1.1v0.2l0,0
		c0.2-0.1,0.4-0.2,0.7-0.2c0.4,0,0.8,0.1,1.1,0.4c0.3,0.3,0.4,0.6,0.4,1s-0.1,0.7-0.4,1s-0.6,0.4-1.1,0.4c-0.2,0-0.5-0.1-0.7-0.2
		C19.4,50,19.2,49.8,19.1,49.6L19.1,49.6z M24,50.2c-0.5,0-0.9-0.2-1.1-0.6c-0.2-0.4-0.3-0.9-0.3-1.6c0-0.3,0-0.6,0.1-0.9
		c0.1-0.3,0.1-0.5,0.3-0.7c0.1-0.2,0.3-0.4,0.5-0.5s0.4-0.2,0.7-0.2c0.4,0,0.7,0.1,0.9,0.3c0.2,0.2,0.4,0.5,0.5,0.8s0.1,0.7,0.1,1.1
		c0,0.3,0,0.6-0.1,0.9c-0.1,0.3-0.1,0.5-0.3,0.7c-0.1,0.2-0.3,0.4-0.5,0.5C24.5,50.2,24.3,50.2,24,50.2L24,50.2z M24,49.8
		c0.3,0,0.5-0.1,0.7-0.3c0.1-0.2,0.3-0.4,0.3-0.6c0.1-0.3,0.1-0.6,0.1-0.9c0-0.3,0-0.5-0.1-0.7c0-0.2-0.1-0.4-0.2-0.6
		c-0.1-0.2-0.2-0.3-0.3-0.4c-0.1-0.1-0.3-0.1-0.5-0.1c-0.7,0-1,0.6-1,1.8c0,0.6,0.1,1,0.2,1.3C23.4,49.6,23.6,49.8,24,49.8L24,49.8z
		"/>
	<path class="st2" d="M14.1,26.2l0.3-0.3c0.1,0.1,0.3,0.3,0.5,0.3c0.2,0.1,0.4,0.1,0.6,0.1c0.3,0,0.5-0.1,0.7-0.3
		c0.2-0.2,0.3-0.4,0.3-0.7c0-0.3-0.1-0.5-0.3-0.7c-0.2-0.1-0.5-0.2-0.8-0.2H15l-0.1-0.3L16,23l0.2-0.2l0,0c-0.1,0-0.2,0-0.3,0h-1.6
		v-0.4h2.5v0.3l-1.3,1.5c0.1,0,0.3,0,0.4,0.1c0.1,0.1,0.3,0.1,0.4,0.2s0.3,0.2,0.3,0.4c0.1,0.2,0.1,0.4,0.1,0.6
		c0,0.3-0.1,0.7-0.4,0.9c-0.3,0.3-0.6,0.4-1,0.4c-0.2,0-0.5-0.1-0.7-0.2C14.5,26.5,14.3,26.4,14.1,26.2L14.1,26.2z M17.5,27.3
		l0.3-1.1h0.5l-0.5,1.1H17.5z M20.7,26.8c-0.5,0-0.9-0.2-1.1-0.6s-0.3-0.9-0.3-1.6c0-0.3,0-0.6,0.1-0.9s0.1-0.5,0.3-0.7
		c0.1-0.2,0.3-0.4,0.5-0.5s0.4-0.2,0.7-0.2c0.4,0,0.7,0.1,0.9,0.3c0.2,0.2,0.4,0.5,0.5,0.8s0.1,0.7,0.1,1.1c0,0.3,0,0.6-0.1,0.9
		s-0.1,0.5-0.3,0.7c-0.1,0.2-0.3,0.4-0.5,0.5C21.2,26.7,21,26.8,20.7,26.8L20.7,26.8z M20.7,26.4c0.3,0,0.5-0.1,0.7-0.3
		c0.1-0.2,0.3-0.4,0.3-0.6c0.1-0.3,0.1-0.6,0.1-0.9s0-0.5-0.1-0.7c0-0.2-0.1-0.4-0.1-0.6c-0.1-0.2-0.2-0.3-0.3-0.4
		c-0.1-0.1-0.3-0.1-0.5-0.1c-0.7,0-1,0.6-1,1.8c0,0.6,0.1,1,0.2,1.3C20,26.2,20.3,26.4,20.7,26.4L20.7,26.4z M24.5,26.8
		c-0.5,0-0.9-0.2-1.1-0.6s-0.3-0.9-0.3-1.6c0-0.3,0-0.6,0.1-0.9s0.1-0.5,0.3-0.7c0.1-0.2,0.3-0.4,0.5-0.5s0.4-0.2,0.7-0.2
		c0.3,0,0.6,0.1,0.9,0.3c0.2,0.2,0.4,0.5,0.5,0.8s0.1,0.7,0.1,1.1c0,0.3,0,0.6-0.1,0.9s-0.1,0.5-0.3,0.7c-0.1,0.2-0.3,0.4-0.5,0.5
		C25,26.7,24.7,26.8,24.5,26.8L24.5,26.8z M24.5,26.4c0.3,0,0.5-0.1,0.6-0.3c0.1-0.2,0.3-0.4,0.3-0.6c0.1-0.3,0.1-0.6,0.1-0.9
		s0-0.5-0.1-0.7c0-0.2-0.1-0.4-0.1-0.6c-0.1-0.2-0.2-0.3-0.3-0.4c-0.1-0.1-0.3-0.1-0.5-0.1c-0.7,0-1.1,0.6-1.1,1.8
		c0,0.6,0.1,1,0.2,1.3C23.8,26.2,24.1,26.4,24.5,26.4L24.5,26.4z"/>
	<line class="st3" x1="30.6" y1="116.8" x2="261.8" y2="116.8"/>
	<line class="st3" x1="30.6" y1="93.7" x2="261.8" y2="93.7"/>
	<line class="st3" x1="30.6" y1="70.9" x2="261.8" y2="70.9"/>
	<line class="st3" x1="30.6" y1="47.9" x2="261.8" y2="47.9"/>
	<line class="st3" x1="30.6" y1="25.1" x2="261.8" y2="25.1"/>
	<path class="st4" d="M241.1,49.4l-33.3,20.3c-0.1-0.3-0.3-0.5-0.4-0.7l33.3-20.3C240.7,49,240.9,49.2,241.1,49.4L241.1,49.4z
		 M243.2,45.8c1,0,1.8,0.8,1.8,1.8s-0.8,1.8-1.8,1.8s-1.8-0.8-1.8-1.8S242.2,45.8,243.2,45.8L243.2,45.8z M205.2,69
		c1,0,1.8,0.8,1.8,1.8s-0.8,1.8-1.8,1.8s-1.8-0.8-1.8-1.8S204.2,69,205.2,69L205.2,69z M128.2,87.5c1,0,1.8,0.8,1.8,1.8
		s-0.8,1.8-1.8,1.8s-1.8-0.8-1.8-1.8C126.4,88.3,127.2,87.5,128.2,87.5L128.2,87.5z M166.4,78.3c1,0,1.8,0.8,1.8,1.8
		s-0.8,1.8-1.8,1.8s-1.8-0.8-1.8-1.8S165.4,78.3,166.4,78.3L166.4,78.3z M89.9,96.6c1,0,1.8,0.8,1.8,1.8s-0.8,1.8-1.8,1.8
		s-1.8-0.8-1.8-1.8S88.9,96.6,89.9,96.6L89.9,96.6z M51.3,103.6c1,0,1.8,0.8,1.8,1.8s-0.8,1.8-1.8,1.8s-1.8-0.8-1.8-1.8
		S50.3,103.6,51.3,103.6L51.3,103.6z M202.7,71.8l-33.5,8c0-0.3-0.1-0.6-0.2-0.8l33.5-8C202.5,71.3,202.6,71.6,202.7,71.8
		L202.7,71.8z M163.9,81.2l-33,7.9c0-0.3-0.1-0.6-0.2-0.8l33-7.9C163.7,80.6,163.8,80.9,163.9,81.2L163.9,81.2z M125.6,90.4
		l-32.9,7.9c0-0.3-0.1-0.6-0.2-0.8l32.9-7.9C125.4,89.8,125.5,90.1,125.6,90.4L125.6,90.4z M87.3,99.4l-33.3,6
		c0-0.3-0.1-0.6-0.2-0.9l33.3-6C87.2,98.8,87.2,99.1,87.3,99.4L87.3,99.4z"/>
	<path class="st5" d="M32.5,142.5V23.7 M260,139.5H30.6"/>
</g>
</svg>
