<?xml version="1.0" encoding="utf-8"?>
<!-- Generator: Adobe Illustrator 21.1.0, SVG Export Plug-In . SVG Version: 6.00 Build 0)  -->
<svg version="1.1" id="Слой_1" xmlns="http://www.w3.org/2000/svg" xmlns:xlink="http://www.w3.org/1999/xlink" x="0px" y="0px"
	 viewBox="0 0 42.5 47.1" enable-background="new 0 0 42.5 47.1" xml:space="preserve">
<path fill="#1A1A18" d="M9.8,37.5c0.1,1.7-0.4,8.6,0.2,9.6c0.7,0.5,7.3-7.3,7.8-8.3c7.3-0.5,17.5,0.7,22-6.5
	c3.6-5.7,3.2-18.7,0.7-24.2C39.4,5.7,38.2,4.2,36,3c-6.4-3.5-17.9-3.6-24.7-1.9C6,2.4,2.8,5,1.2,10.1C-0.3,15-0.7,25.6,1.9,31
	C4.1,35.8,6.2,35.4,9.8,37.5 M20.4,5.9c0.2-0.3,1.1-0.2,1.5-0.2C28,6,32.7,10.1,34.1,15.6c0.2,0.7,0.9,4.3,0.3,4.9
	c-0.3,0.4-0.8,0.2-1-0.2c-0.3-0.8,0-3.3-1.2-6.2c-0.8-1.8-1.9-3.2-3.1-4.2c-3.3-2.7-4.9-2.5-8.2-2.9C20.3,7,20.1,6.4,20.4,5.9z
	 M23.7,10.7c-0.4-0.1-1.8-0.2-2-0.4c-0.6-0.5-0.2-1.2,0.8-1.2c4.9,0.3,8.5,3.9,8.7,8.6c0,1,0.1,1.6-1,1.4c-0.7-1,0.4-4.1-3-6.9
	C26.2,11.6,25.1,11,23.7,10.7z M7.3,12.5C6.9,10.5,9.1,8.7,10,8c2.5-1.8,3.1-0.4,4.4,1.1c6.4,7.9-1.1,5.3,0.4,9.2
	c1.3,3.4,3.7,6.1,6.9,7.5c3.4,1.4,2.7-0.7,4.4-1.7c1.5-0.9,3.7,0.9,5,1.9c1.6,1.2,3.4,2.2,2.3,4.1c-0.6,1.2-2.3,3.1-3.8,3.4
	c-2.4,0.4-8.4-3.4-10-4.4c-0.4-0.2-0.7-0.5-1-0.7c-2.6-1.9-4.4-3.8-6.3-6.4C10.9,20.2,7.8,14.7,7.3,12.5z M27.7,17.9
	c-1.7,1.1-1-1.3-2-2.7c-1.2-1.7-3.7-0.6-3.2-2.1c0.2-0.7,1.5-0.3,2.1-0.2C26.7,13.5,27.9,15.6,27.7,17.9z"/>
</svg>
